<svg version="1.2" xmlns="http://www.w3.org/2000/svg" viewBox="0 0 1024 1536" width="1024" height="1536">
	<style>
		.s0 { opacity: .99;fill: #fdfefe } 
	</style>
	<g id="Background">
		<path id="Path 0" class="s0" d="m526 1113.74c3.02 0.2 8.2 0.2 11.5 0 3.3-0.2 0.83-0.36-5.5-0.36-6.33 0-9.02 0.16-6 0.36z"/>
		<path id="Path 1" class="s0" d="m397.5 1113.74c3.3 0.2 8.25 0.2 11 0 2.75-0.21 0.05-0.37-6-0.37-6.05 0.01-8.3 0.17-5 0.37z"/>
		<path id="Path 2" class="s0" d="m338.5 1113.73c2.2 0.21 6.02 0.21 8.5 0 2.48-0.21 0.68-0.38-4-0.38-4.68 0-6.7 0.17-4.5 0.38z"/>
		<path id="Path 3" class="s0" d="m737.38 1010.5c-0.48 0.55-0.98 1.9-1.11 3-0.13 1.1 0.09 1.65 0.5 1.22 0.4-0.44 1.75 1.81 3 5 1.25 3.18 2.04 6.34 1.75 7.03-0.29 0.69-0.18 1.05 0.23 0.81 0.41-0.24 1.54 1.79 2.5 4.5 0.96 2.72 1.42 5.5 1.01 6.19-0.54 0.92-0.36 0.99 0.71 0.25 1.18-0.81 1.32-0.58 0.74 1.25-0.39 1.24-0.37 2.05 0.04 1.81 0.41-0.24 1.76 2.24 3 5.5 1.24 3.27 1.92 6.5 1.51 7.19-0.44 0.74-0.33 0.97 0.25 0.56 0.56-0.39 1.51 0.92 2.19 3 0.66 2.03 0.89 4.14 0.51 4.69-0.41 0.59-0.19 0.7 0.55 0.25 0.79-0.48 1.3-0.11 1.4 1 0.08 0.96 0.2 2.26 0.25 2.88 0.05 0.62 0.43 0.96 0.84 0.75 0.41-0.21 0.82 0.41 0.91 1.37 0.08 0.96 0.2 2.26 0.25 2.88 0.05 0.62 0.52 0.84 1.05 0.5 0.59-0.39 0.68 0.34 0.24 1.87-0.4 1.37-0.38 2.14 0.04 1.7 0.42-0.44 1.55 1.25 2.51 3.75 0.96 2.5 1.42 5.11 1.01 5.8-0.54 0.92-0.36 0.99 0.71 0.25 1.18-0.81 1.32-0.58 0.74 1.25-0.44 1.39-0.33 2.06 0.29 1.75 0.55-0.28 1.07 0.29 1.16 1.25 0.08 0.96 0.09 2.42 0.02 3.25-0.08 0.83 0.18 1.14 0.59 0.7 0.4-0.44 1.97 2.6 3.48 6.75 1.51 4.15 2.42 8.11 2.01 8.8q-0.73 1.24 0.5 0.5c0.73-0.44 1.44-0.14 1.74 0.75 0.41 1.22 3.1 1.55 14.5 1.75 12.77 0.23 14 0.1 14-1.5 0-1.13 0.44-1.49 1.25-1.01q1.24 0.73 0.5-0.5c-0.41-0.68 0.26-3.92 1.5-7.2 1.24-3.28 2.59-5.76 3-5.5 0.41 0.25 0.64-0.1 0.51-0.79-0.14-0.69 0.43-3.17 1.25-5.52 0.82-2.36 1.72-4.27 1.99-4.25 0.27 0.01 0.53-0.54 0.56-1.23 0.03-0.69 1.26-4.74 2.75-9 1.48-4.26 3.14-7.75 3.69-7.75 0.55 0 0.79-0.34 0.54-0.75-0.25-0.41 0.76-4.04 2.25-8.05 1.49-4.02 3.04-6.94 3.44-6.5 0.41 0.44 0.67 0.13 0.59-0.7-0.07-0.83-0.06-2.29 0.02-3.25 0.09-0.96 0.61-1.53 1.16-1.25 0.62 0.31 0.73-0.36 0.29-1.75-0.43-1.36-0.33-2 0.25-1.62 0.53 0.34 1 0.12 1.05-0.5 0.05-0.62 0.17-1.92 0.25-2.88 0.09-0.96 0.5-1.58 0.91-1.37 0.41 0.21 0.79-0.13 0.84-0.75 0.05-0.62 0.17-1.92 0.25-2.88 0.1-1.11 0.62-1.48 1.41-1.01q1.24 0.73 0.5-0.5c-0.41-0.68 0.32-3.83 1.62-6.99 1.31-3.16 2.94-7.55 3.63-9.75 0.69-2.2 1.65-4.56 2.13-5.25 0.48-0.69 0.53-1.43 0.12-1.65-0.41-0.23-5.25-0.51-10.75-0.64-5.5-0.13-11.35-0.17-13-0.1-2.32 0.1-3.06 0.64-3.25 2.39-0.14 1.24-0.82 2.89-1.5 3.67-0.69 0.77-1.35 2.12-1.47 3-0.12 0.87-1.02 3.69-2 6.27-0.98 2.58-2.12 4.49-2.53 4.25-0.41-0.24-0.52 0.23-0.25 1.06 0.27 0.83 0.05 1.5-0.5 1.5-0.58 0-0.7 0.94-0.29 2.25 0.43 1.36 0.33 2-0.25 1.62-0.53-0.34-1-0.12-1.05 0.5-0.05 0.62-0.17 1.92-0.25 2.88-0.1 1.11-0.61 1.48-1.4 1q-1.23-0.74-0.5 0.5c0.41 0.69 0.22 2.71-0.42 4.5-0.64 1.79-1.43 3.47-1.75 3.75-0.33 0.28-0.59 1.06-0.59 1.75 0 0.69-0.11 1.92-0.25 2.75-0.15 0.91-0.74 1.2-1.49 0.75q-1.23-0.74-0.5 0.5c0.41 0.69 0.29 2.6-0.26 4.25-0.55 1.65-1.45 3-2 3-0.55 0-0.77 0.45-0.5 1 0.27 0.55-0.47 3.36-1.66 6.25-1.19 2.89-2.82 5.92-3.64 6.75-0.81 0.83-1.19 0.94-0.84 0.25 0.35-0.69 0.19-1.25-0.36-1.25-0.55 0-0.77-0.67-0.5-1.5 0.27-0.83 0.05-1.28-0.5-1-0.55 0.28-1.11-0.17-1.25-1-0.14-0.83-0.25-2.06-0.25-2.75 0-0.69-0.28-1.47-0.62-1.75-0.33-0.28-2.46-5.67-4.71-12-2.26-6.33-3.78-11.95-3.4-12.5 0.39-0.55 0.26-0.69-0.28-0.31-0.58 0.4-2.32-3.12-4.19-8.5-1.75-5.05-3.89-10.88-4.75-12.94-0.85-2.06-1.21-4.31-0.8-4.99q0.74-1.23-0.5-0.5c-0.73 0.43-1.24 0.22-1.22-0.51 0.02-0.69-0.77-2.15-1.75-3.25-1.27-1.43-3.33-2.09-7.19-2.33-3.53-0.21-5.89 0.14-6.79 1-0.77 0.73-1.37 0.88-1.35 0.33 0.03-0.55-2.14-1-4.82-1-2.68 0-5.26 0.45-5.75 1z"/>
		<path id="Path 4" fill-rule="evenodd" class="s0" d="m680.2 1007.46c0.72 0.21 4.22 0.71 7.8 1.1 3.58 0.39 7.69 0.76 9.15 0.82 1.46 0.07 2.5 0.34 2.31 0.62-0.19 0.28 1.31 1.05 3.34 1.72 2.04 0.68 6.06 2.81 8.95 4.75 2.89 1.94 5.55 3.19 5.91 2.78 0.36-0.41 0.37-0.3 0.02 0.25-0.35 0.55 0.35 1.9 3.79 5l-1.44-2c-1.25-1.75-1.25-1.83 0.02-0.7 0.8 0.72 1.45 1.62 1.45 2.01 0 0.4 1.35 2.84 3 5.43 1.65 2.59 3.22 4.53 3.5 4.32 0.27-0.22 0.57 0.58 0.67 1.77 0.09 1.2 0.76 4.33 1.5 6.97 0.73 2.65 1.55 4.6 1.83 4.34 0.27-0.26 0.36 1.63 0.2 4.19-0.22 3.35-0.03 4.24 0.68 3.17 0.68-1.03 0.84 0.85 0.52 6-0.26 4.12-0.56 7.59-0.68 7.71-0.12 0.11-16.31 0.23-35.97 0.25-22.79 0.03-35.93 0.4-36.25 1.04-0.28 0.55 0.17 3.25 1 6 0.82 2.75 1.95 4.78 2.5 4.5 0.6-0.3 0.71 0.2 0.27 1.25-0.58 1.39-0.42 1.54 0.74 0.75 1.09-0.74 1.28-0.67 0.73 0.25-0.44 0.74 0.27 2.26 1.76 3.75 1.37 1.37 4.64 3.44 7.25 4.6 2.77 1.22 5.69 1.85 7 1.5 1.24-0.33 2.47-0.15 2.75 0.4 0.27 0.55 1.85 1 3.5 1 1.65 0 3-0.34 3.01-0.75 0.01-0.41 1.47-0.55 3.25-0.31 2.33 0.31 3.03 0.1 2.49-0.75-0.54-0.85-0.11-0.99 1.5-0.48 1.83 0.58 2.07 0.44 1.26-0.75-0.73-1.07-0.66-1.26 0.25-0.71 0.68 0.41 2.59 0.08 4.24-0.75 1.65-0.83 3-1.95 3-2.5 0-0.55 0.56-0.89 1.25-0.75 0.69 0.14 1.1-0.42 0.92-1.25-0.19-0.83 0.04-1.17 0.5-0.76 0.46 0.41 1.4 0.19 2.1-0.5 1.01-0.99 1.62-0.89 3 0.51 0.95 0.97 1.95 1.53 2.23 1.25 0.27-0.28 1.4 0.5 4.5 4l-2.05-1.5c-1.13-0.83-0.9-0.42 0.5 0.89 1.4 1.32 4.01 3.68 9.05 8.11l-2.5 2c-1.43 1.14-2.22 2.54-1.84 3.25 0.36 0.69 0.36 0.91 0 0.5-0.36-0.41-2.8 0.87-5.41 2.85-2.61 1.97-7.45 4.89-10.75 6.48-4.56 2.2-8.16 3.07-15 3.62-7.1 0.58-8.26 0.87-5.5 1.38 3.45 0.65 3.44 0.66-1 0.81-2.48 0.08-4.95-0.32-5.5-0.88-0.55-0.56-3.03-1.13-5.5-1.27-2.48-0.13-5.18-0.85-6-1.59-0.83-0.74-2.29-1.07-3.25-0.75-0.96 0.33-1.74 0.26-1.72-0.15 0.02-0.41-1.88-1.65-4.23-2.75-2.34-1.1-4.61-1.89-5.03-1.75-0.42 0.14-0.55-0.2-0.27-0.75 0.27-0.55-0.51-1.53-1.75-2.17-1.24-0.64-2.48-1.09-2.75-1-0.28 0.09-0.51-0.17-0.51-0.58-0.01-0.41-1.14-1.97-2.5-3.47-1.37-1.5-2.94-2.4-3.49-2.01-0.6 0.42-0.7 0.21-0.25-0.53 0.44-0.73 0.1-1.55-0.84-1.99-0.87-0.41-1.55-1.09-1.5-1.5 0.05-0.41-0.14-1.42-0.41-2.25-0.28-0.83-0.84-1.32-1.25-1.1-0.41 0.23-0.83-0.34-0.93-1.25-0.1-0.91-1.32-4.8-2.72-8.65-1.6-4.39-2.56-9.15-2.57-12.75-0.02-3.16-0.48-5.97-1.03-6.25-0.55-0.28-0.95-1.74-0.76-6l0.81 3c0.58 2.18 0.76 1.04 0.63-4.16-0.1-3.93 0.16-6.97 0.57-6.75 0.41 0.23 1.29-1.73 1.95-4.34 0.66-2.61 1.22-5.26 1.25-5.88 0.03-0.62 0.39-0.96 0.8-0.75 0.41 0.21 0.75-0.07 0.75-0.62 0-0.55-0.04-1.34-0.09-1.75-0.04-0.41 0.52-1.07 1.25-1.47 0.74-0.39 1.34-1.29 1.35-2 0.01-0.7 1.81-3.04 4-5.18 2.19-2.15 2.86-3.05-1.01-0.1l2-2.23c1.1-1.23 2.22-2.14 2.5-2.03 0.27 0.11 1.74-0.57 3.25-1.52 1.51-0.94 2.52-2.17 2.25-2.72-0.28-0.55-0.16-0.95 0.25-0.88 0.41 0.06 1.31 0.06 2 0 0.72-0.07 0.93-0.64 0.5-1.36-0.45-0.74-0.35-0.95 0.25-0.52 0.55 0.39 4.6-0.79 8.99-2.62 4.4-1.83 9.01-3.17 10.25-2.98 1.24 0.2 2.24-0.08 2.21-0.61-0.02-0.53 0.54-0.79 1.25-0.57zm-5.41 24.86c0.14 0.65-0.08 0.85-0.51 0.44-0.43-0.4-1.38 0.05-2.1 1-0.75 0.99-1.01 1.09-0.6 0.24 0.39-0.83-0.96 0.08-3.01 2-2.05 1.92-4.37 4.96-5.15 6.75-0.78 1.79-1.2 3.7-0.92 4.25 0.27 0.55 0.05 1-0.5 1-0.55 0-1 0.67-1 1.5 0 1.29 3.22 1.5 23 1.5 19.78 0 23-0.21 23-1.5 0-0.83-0.45-1.5-1-1.5-0.55 0-0.78-0.45-0.5-1 0.27-0.55 0.27-1.9 0-3-0.28-1.1-0.95-1.78-1.5-1.5-0.55 0.28-0.76-0.06-0.46-0.75 0.3-0.69-1.05-2.94-3-5-1.95-2.06-3.77-3.53-4.04-3.25-0.28 0.28-1.29-0.22-2.25-1.09-1.07-0.97-2.62-1.36-4-1-1.34 0.35-2.05 0.19-1.75-0.41 0.3-0.61-1.55-0.95-4.75-0.88-2.89 0.06-6.15 0.32-7.24 0.57-1.1 0.25-1.87 0.99-1.72 1.63z"/>
		<path id="Path 5" class="s0" d="m389 1044.5v67.5h27c0-41.08 0.34-52.95 0.75-52.88 0.41 0.06 12.34 0.06 26.5 0l25.75-0.12c0-22-0.17-23.09-2-24-1.14-0.57-8.78-0.91-17.75-0.79l-15.75 0.21 33 1.16c-39.89 0.34-48.5 0.07-48.5-0.58 0-0.55-0.45-0.78-1-0.5-0.65 0.32-1-5.33-1-16v-16.5c60.47 0.09 62.54-0.02 63.08-1.7 0.32-0.99 0.46-4.72 0.3-8.3-0.16-3.58-0.31-8.41-0.34-10.75l-0.04-4.25h-90z"/>
		<path id="Path 6" fill-rule="evenodd" class="s0" d="m555.75 977.25c0.14 0.41 1.71 0.74 3.5 0.73 1.79-0.01 7.08 1.15 11.75 2.58 4.67 1.42 9.24 2.67 10.15 2.76 0.91 0.1 1.36 0.62 1 1.16-0.39 0.59 0.04 0.69 1.1 0.25 1.05-0.44 1.55-0.33 1.25 0.27-0.27 0.55 0.29 1.05 1.25 1.12 0.96 0.06 2.09 0.06 2.5 0 0.41-0.07 0.54 0.22 0.29 0.63-0.25 0.41 1.44 1.87 3.75 3.23 2.32 1.36 4.55 2.38 4.96 2.25 0.41-0.13 0.63 0.11 0.48 0.52-0.15 0.41 1.87 2.78 4.48 5.25 2.61 2.47 4.99 4.39 5.27 4.25 0.29-0.14 0.31 0.09 0.05 0.5-0.26 0.41-0.04 1.54 0.5 2.5 0.58 1.04 1.47 1.45 2.21 1q1.23-0.74 0.5 0.5c-0.41 0.69 0.24 2.92 1.47 5 1.21 2.06 2.45 3.97 2.75 4.25 0.29 0.28 0.62 1.17 0.73 2 0.1 0.83 0.95 4.2 1.89 7.5 1.09 3.81 1.74 9.82 1.79 16.5 0.05 5.78-0.13 12.63-0.39 15.24-0.27 2.61-0.82 4.75-1.23 4.75-0.41 0.01-0.52 0.91-0.25 2.01 0.27 1.1 0.16 1.8-0.25 1.56-0.41-0.25-1.29 1.22-1.95 3.25-0.66 2.03-0.89 4.14-0.51 4.69 0.38 0.55 0.24 0.68-0.3 0.3-0.54-0.39-1.72 0.74-2.6 2.5-0.89 1.76-1.6 3.42-1.57 3.7 0.03 0.28-1.15 1.85-2.62 3.5-1.47 1.65-2.45 3.34-2.19 3.75 0.27 0.41-0.21 1.31-1.05 2-0.85 0.69-1.52 0.8-1.48 0.25 0.03-0.55-1.28 0.35-2.93 2-1.64 1.65-2.89 3.22-2.77 3.5 0.12 0.28-0.23 0.66-0.78 0.85-0.55 0.19-1.79 0.75-2.75 1.25-0.96 0.49-1.52 1.35-1.25 1.9 0.27 0.55 0.16 0.91-0.25 0.8-0.41-0.11-1.76 0.12-3 0.5-1.38 0.43-1.99 1.18-1.59 1.95 0.36 0.69 0.25 0.93-0.25 0.54-0.5-0.4-2.93 0.34-5.41 1.63-2.48 1.3-6.42 2.97-8.77 3.72-2.35 0.75-4.27 1.7-4.25 2.11 0.01 0.41-0.43 0.53-0.98 0.25-0.55-0.28-1.79-0.21-2.75 0.15-0.96 0.36-2.76 0.58-4 0.5-1.24-0.08-2.25 0.19-2.25 0.6 0 0.41-13.72 0.64-61 0.25v-135l28.75-0.25c15.81-0.14 28.86 0.09 29 0.5zm-30.75 110.75c23.5 0 29-0.38 29-1 0-0.55 1-0.72 2.25-0.38 1.24 0.34 4.18 0.01 6.53-0.75 2.35-0.75 4.27-1.71 4.25-2.12-0.02-0.41 0.42-0.53 0.97-0.25 0.55 0.28 1.67 0.28 2.5 0 0.83-0.28 1.27-0.95 1-1.5-0.27-0.55 0.06-0.74 0.75-0.42 0.69 0.31 4.12-2.05 7.62-5.25 3.51-3.21 7.29-7.63 8.4-9.83 1.11-2.2 2.06-5.87 2.12-8.15 0.06-2.28 0.45-3.96 0.86-3.75 0.41 0.22 0.57-4.66 0.36-10.85-0.29-8.19-0.97-12.81-2.5-17-1.47-4-2.49-5.52-3.36-5.01q-1.24 0.73-0.5-0.5c0.43-0.71-0.26-2.62-1.63-4.49-1.32-1.79-3.57-4.04-5-5-1.53-1.02-2.37-1.23-2.03-0.5 0.32 0.69-0.24 0.26-1.25-0.96-1.01-1.22-4.09-3.19-6.84-4.38-2.75-1.2-6.64-2.23-8.65-2.29-2-0.07-3.47-0.46-3.25-0.87 0.22-0.41-6.8-0.75-15.6-0.75h-16z"/>
		<path id="Path 7" class="s0" d="m347.75 976.72l-12.75 0.28c-4.26 7.76-5.87 9.67-6.33 9.26-0.46-0.42-0.75-0.31-0.63 0.24 0.11 0.55 0.14 1.56 0.08 2.25-0.07 0.72-0.64 0.93-1.36 0.5q-1.23-0.74-0.5 0.5c0.41 0.69-0.1 2.48-1.13 4-1.03 1.51-3.06 4.89-4.5 7.5-1.45 2.61-3.08 4.75-3.63 4.75-0.55 0-0.8 0.34-0.55 0.75 0.25 0.41-1.66 4.46-4.25 8.99-2.58 4.54-5.08 7.91-5.53 7.5-0.46-0.4-0.69-0.29-0.52 0.26 0.18 0.55-0.23 2.46-0.91 4.25-0.68 1.79-1.69 3.03-2.24 2.75-0.55-0.28-0.95-0.16-0.88 0.25 0.06 0.41 0.06 1.31 0 2-0.07 0.69-0.57 1.03-1.12 0.75-0.55-0.28-0.91-0.16-0.8 0.25 0.11 0.41-0.12 1.76-0.5 3-0.45 1.44-1.15 1.98-1.95 1.51q-1.24-0.73-0.5 0.5c0.44 0.72-0.81 3.91-3 7.64-2.17 3.7-4.38 6.34-5.25 6.25-0.82-0.08-2.02-1.05-2.66-2.15-0.64-1.1-0.87-2.45-0.5-2.99 0.39-0.58 0.14-0.68-0.59-0.25-0.8 0.47-1.5-0.07-1.95-1.51-0.38-1.24-0.57-2.7-0.41-3.25 0.15-0.55-0.1-0.67-0.56-0.26-0.45 0.41-2.52-2.18-4.58-5.75-2.06-3.57-3.45-7.05-3.09-7.74 0.37-0.69 0.26-0.92-0.25-0.5-0.5 0.41-1.47-0.15-2.16-1.25-0.69-1.1-0.95-2.56-0.59-3.25 0.37-0.7 0.26-0.91-0.25-0.48-0.5 0.42-2.12-1.38-3.59-4-1.48-2.62-2.42-5.22-2.09-5.77 0.32-0.55 0.18-0.66-0.32-0.25-0.5 0.41-1.47-0.15-2.16-1.25-0.69-1.1-0.92-2.56-0.51-3.25q0.73-1.24-0.5-0.5-1.24 0.74-2.48-2.5c-0.68-1.79-1.13-3.59-1-4 0.13-0.41-0.21-0.53-0.76-0.25-0.55 0.28-1.31-0.51-1.7-1.75-0.38-1.24-0.61-2.59-0.5-3 0.11-0.41-0.25-0.53-0.8-0.25-0.55 0.28-1.56-0.96-2.24-2.75-0.68-1.79-1.09-3.7-0.91-4.25 0.17-0.55-0.06-0.67-0.52-0.26-0.46 0.4-1.62-0.72-2.59-2.5-0.96-1.78-2.54-4.71-3.5-6.51l-1.74-3.27-27.5 0.04-0.5 135h27.5c0.12-61.61 0.34-80.4 0.57-81.5 0.23-1.1 0.53-2.12 0.67-2.28 0.14-0.15 2.17 2.66 4.51 6.25 2.51 3.86 3.95 7.04 3.51 7.78q-0.73 1.24 0.5 0.5c0.73-0.44 1.44-0.14 1.74 0.75 0.28 0.83 0.17 2.06-0.24 2.75q-0.73 1.24 0.5 0.5c0.82-0.49 1.91 0.53 3.21 3 1.08 2.06 1.64 4.16 1.25 4.66-0.43 0.55-0.13 0.55 0.76 0 1.16-0.71 1.32-0.53 0.75 0.84-0.52 1.24-0.37 1.53 0.5 1 0.87-0.53 1.02-0.24 0.5 1-0.44 1.05-0.33 1.55 0.27 1.25 0.55-0.28 1.05 0.06 1.12 0.75 0.06 0.69 0.03 1.7-0.08 2.25-0.12 0.55 0.17 0.66 0.63 0.25 0.46-0.41 1.39 0.15 2.08 1.25 0.69 1.1 0.95 2.56 0.59 3.25-0.37 0.7-0.26 0.91 0.25 0.49 0.5-0.42 1.92 1.05 3.16 3.25 1.24 2.21 1.95 4.57 1.59 5.26-0.37 0.69-0.26 0.92 0.25 0.5 0.5-0.41 1.47 0.15 2.16 1.25 0.69 1.1 0.92 2.56 0.51 3.25q-0.73 1.24 0.5 0.5c0.84-0.51 1.96 0.85 3.49 4.21l2.25 4.96c13.95 0.1 17.68-0.21 17.28-0.64-0.39-0.43-0.06-2.02 0.75-3.53 0.81-1.51 1.92-2.75 2.47-2.75 0.55 0 0.95-0.34 0.88-0.75-0.06-0.41-0.06-1.31 0-2 0.07-0.69 0.46-1.07 0.87-0.85 0.41 0.23 0.78-0.11 0.81-0.75 0.04-0.63 1.5-3.74 3.25-6.9 1.76-3.16 3.53-5.75 3.94-5.75 0.41 0 0.8-0.56 0.86-1.25 0.06-0.69 1.86-4.3 4-8.02 2.14-3.72 4.26-6.42 4.72-6 0.46 0.42 0.69 0.31 0.5-0.25-0.18-0.56 0.57-2.91 1.67-5.21 1.12-2.35 2.44-3.88 2.99-3.48 0.59 0.42 0.69 0.2 0.25-0.54-0.41-0.69 0.04-2.49 1-4 0.95-1.51 2.41-3.35 3.25-4.07 0.83-0.73 0.95-1.07 0.26-0.75-0.94 0.43-1 0.08-0.25-1.43 0.55-1.1 1.56-1.85 2.25-1.67 0.97 0.26 1.31 9.58 1.5 41.5l0.25 41.17h27c0-105.4-0.11-135.9-0.25-135.78-0.14 0.12-5.99 0.34-13 0.5z"/>
		<path id="Path 8" fill-rule="evenodd" class="s0" d="m539.54 304.16c0.58-0.09 0.95 0.18 0.84 0.59-0.11 0.41 5.95 1.31 13.46 2 7.51 0.69 19.06 2.17 25.66 3.31 6.6 1.13 16.39 3.15 21.75 4.5 5.36 1.34 10.2 2.21 10.75 1.94 0.55-0.28 1-0.05 1 0.5 0 0.55 0.9 0.77 2 0.5 1.39-0.35 1.77-0.13 1.25 0.71-0.54 0.88-0.13 1.02 1.5 0.5 1.24-0.39 2.05-0.37 1.81 0.04-0.24 0.41 2.12 1.59 5.25 2.62 3.13 1.03 10.19 3.59 15.69 5.7 5.5 2.11 10.45 3.56 11 3.22 0.55-0.34 0.64-0.2 0.19 0.3-0.45 0.51 1.41 1.89 4.25 3.16 2.79 1.24 5.62 1.91 6.3 1.5 0.91-0.55 0.98-0.36 0.25 0.73-0.79 1.17-0.63 1.33 0.76 0.75 1.05-0.44 1.55-0.33 1.25 0.27-0.27 0.55 0.06 1.05 0.75 1.12 0.69 0.06 1.59 0.06 2 0 0.41-0.07 0.73 0.22 0.71 0.63-0.02 0.41 1.44 1.42 3.25 2.24 1.81 0.82 3.63 1.38 4.04 1.25 0.41-0.13 0.41 0.31 0 0.99-0.53 0.87-0.24 1.02 1 0.5 1.05-0.44 1.55-0.33 1.25 0.27-0.27 0.55 0.51 1.31 1.75 1.7 1.24 0.38 2.7 0.57 3.25 0.41 0.55-0.15 0.66 0.1 0.25 0.56-0.41 0.45 0.15 1.39 1.25 2.08 1.1 0.69 2.56 0.91 3.24 0.5q1.23-0.74 0.5 0.5c-0.47 0.8 0.07 1.5 1.51 1.95 1.24 0.38 2.59 0.61 3 0.5 0.41-0.11 0.64 0.36 0.5 1.05-0.14 0.72 0.59 1.15 1.75 1.02 1.1-0.13 1.67 0.09 1.26 0.5-0.41 0.4 0.72 1.73 2.5 2.95 1.78 1.22 3.69 1.89 4.23 1.5 0.59-0.43 0.69-0.21 0.25 0.53-0.43 0.72-0.21 1.3 0.51 1.37 0.69 0.06 1.59 0.06 2 0 0.41-0.07 0.53 0.33 0.25 0.88-0.27 0.55 0.06 1.05 0.75 1.12 0.69 0.06 1.59 0.06 2 0 0.41-0.07 0.53 0.33 0.25 0.88-0.27 0.55 0.29 1.44 1.25 1.97 0.96 0.54 2.16 0.65 2.66 0.25 0.5-0.39 0.63-0.27 0.28 0.28-0.35 0.55 2.12 3.02 5.48 5.5 3.36 2.47 6.49 4.39 6.97 4.25 0.47-0.14 0.64 0.2 0.36 0.75-0.27 0.55 1.19 2.24 3.25 3.75 2.06 1.51 3.98 2.64 4.25 2.52 0.28-0.13 1.4 0.77 4.5 4.23l-2.02-1.5c-1.12-0.83 0.23 0.59 3 3.14 2.76 2.56 5.47 4.36 6.02 4.01 0.55-0.34 0.68-0.18 0.28 0.36-0.39 0.54 0.85 2.45 2.75 4.24 1.91 1.79 3.7 3.25 3.97 3.25 0.28 0 0.39 0.11 0.26 0.25-0.12 0.14 3.14 4.33 7.25 9.31 4.12 4.98 8.62 10.46 9.99 12.18 1.38 1.71 2.95 2.81 3.49 2.44 0.54-0.38 0.68-0.23 0.29 0.32-0.38 0.55 1.08 3.36 3.26 6.25 2.18 2.89 4.22 4.91 4.54 4.5 0.32-0.41 0.5-0.3 0.38 0.25-0.11 0.55-0.14 1.56-0.08 2.25 0.07 0.72 0.65 0.94 1.37 0.51 0.74-0.44 0.97-0.34 0.55 0.25-0.38 0.54 0.52 2.91 2 5.25 1.49 2.34 3.11 3.92 3.61 3.5 0.51-0.42 0.62-0.21 0.25 0.49-0.36 0.69-0.1 2.15 0.59 3.25 0.69 1.1 1.66 1.66 2.16 1.25 0.51-0.42 0.62-0.19 0.25 0.5-0.36 0.69 0.8 3.73 2.59 6.75 1.79 3.03 3.59 5.28 4 5 0.41-0.27 0.53-0.28 0.25 0-0.27 0.27 2.45 6.46 6.05 13.75 3.6 7.29 7.09 14.91 7.75 16.95 0.66 2.03 1.43 3.53 1.7 3.34 0.28-0.19 0.57 0.4 0.65 1.31 0.08 0.91 2.22 7.39 4.75 14.4 2.53 7.01 4.9 12.41 5.26 12 0.36-0.41 0.36-0.19 0 0.5-0.36 0.69 0.69 6.54 2.34 13 1.65 6.46 3 12.54 3 13.5 0 0.96 0.34 1.57 0.75 1.36 0.41-0.22 0.84 1.92 0.95 4.75 0.11 2.83 0.67 5.25 1.25 5.39 0.58 0.14 0.79 1.04 0.47 2-0.31 0.96 0.14 7.26 1 14 0.87 6.74 1.61 15.51 1.65 19.5 0.05 5.18 0.33 6.68 0.98 5.25 0.68-1.5 0.78-1.13 0.42 1.5-0.27 1.92-0.6 11.03-0.73 20.24-0.13 9.21-0.58 16.75-0.99 16.75-0.41 0.01-0.57 2.6-0.35 5.76 0.22 3.18 0.04 5.08-0.4 4.25-0.49-0.93-1.02 1.26-1.4 5.75-0.33 3.99-0.26 7.81 0.15 8.49q0.74 1.23-0.5 0.5c-0.88-0.52-1.25 0.08-1.26 2.01-0.01 1.51-0.95 6.8-2.08 11.75-1.14 4.95-1.81 9.56-1.49 10.25 0.32 0.69 0.13 1.02-0.42 0.75-0.55-0.28-1.22 0.85-1.5 2.5-0.27 1.65-0.17 3.56 0.24 4.25q0.73 1.24-0.5 0.5c-0.77-0.47-1.24-0.18-1.24 0.75 0 0.83-2.28 8.36-5.06 16.75-2.79 8.39-5.71 16.26-6.5 17.5-0.79 1.24-1.21 2.25-0.94 2.25 0.28 0-0.11 1.24-0.86 2.75-0.75 1.51-1.11 3.42-0.8 4.25q0.55 1.49-0.64 0.75c-0.75-0.47-1.24-0.1-1.32 1-0.06 0.96-0.03 2.2 0.08 2.75 0.12 0.55-0.17 0.66-0.63 0.24-0.46-0.42-2.26 2.51-4.01 6.5-1.75 3.99-2.88 7.71-2.5 8.25 0.4 0.58 0.17 0.69-0.57 0.25-0.73-0.43-1.23-0.22-1.21 0.51 0.03 0.69-0.67 1.92-1.55 2.75-0.88 0.83-1.35 2.06-1.05 2.75 0.31 0.69 0.11 1.02-0.44 0.75-0.55-0.28-1.56 0.96-2.24 2.75-0.68 1.79-1.13 3.59-1 4 0.13 0.41-0.21 0.52-0.76 0.25-0.55-0.28-1.22 0.17-1.5 1-0.27 0.83-2.82 4.99-5.65 9.25-2.83 4.26-5.19 8.27-5.25 8.9-0.05 0.64-0.44 0.98-0.85 0.75-0.41-0.22-0.8 0.16-0.87 0.85-0.06 0.69-0.06 1.59 0 2 0.07 0.41-0.33 0.52-0.88 0.25-0.55-0.28-1.44 0.29-1.97 1.25-0.54 0.96-0.65 2.16-0.25 2.66 0.39 0.5 0.16 0.61-0.53 0.25-0.71-0.38-1.53 0.09-1.91 1.09-0.36 0.96-0.59 2.09-0.5 2.5 0.09 0.41-0.29 0.52-0.84 0.25-0.55-0.28-1.44 0.29-1.97 1.25-0.54 0.96-0.65 2.16-0.25 2.66 0.39 0.5 0.16 0.61-0.53 0.25-0.73-0.39-1.75 0.27-2.46 1.59-0.67 1.24-1.12 2.59-1 3 0.11 0.41-0.13 0.55-0.54 0.31-0.41-0.25-2.77 2.06-5.25 5.12-2.47 3.07-4.5 6.08-4.5 6.7 0 0.61-0.45 1.16-1 1.2-0.55 0.04-5.93 4.99-11.96 11-6.03 6.01-10.98 11.26-11 11.67-0.02 0.41-0.29 0.64-0.6 0.5-0.31-0.14-2.11 1.05-4 2.65-1.89 1.59-3.44 3.39-3.44 4 0 0.6-0.45 1.11-1 1.13-0.55 0.01-2.24 0.8-3.75 1.75-1.73 1.08-2.48 2.18-2.01 2.97 0.44 0.74 0.34 0.96-0.25 0.54-0.54-0.39-2-0.05-3.24 0.75-1.37 0.89-1.96 1.95-1.51 2.71 0.44 0.74 0.34 0.96-0.25 0.53-0.54-0.39-2.45 0.28-4.23 1.5-1.78 1.22-3.02 2.56-2.75 2.97 0.27 0.41 0.15 0.54-0.26 0.28-0.41-0.26-1.54-0.04-2.5 0.5-1.04 0.58-1.45 1.47-1 2.21 0.45 0.74 0.34 0.96-0.25 0.56-0.55-0.38-2.24 0.07-3.76 1.01-1.52 0.93-2.42 2.1-2 2.6 0.42 0.5 0.31 0.64-0.24 0.31-0.55-0.34-2.24 0.15-3.76 1.09-1.52 0.93-2.42 2.06-2 2.52 0.42 0.46 0.31 0.75-0.24 0.63-0.55-0.11-1.56-0.14-2.25-0.08-0.72 0.07-0.93 0.64-0.5 1.36q0.74 1.23-0.5 0.5c-0.73-0.43-4.04 0.98-8 3.41-3.71 2.29-9 5.26-11.75 6.61-2.75 1.35-5.11 2.86-5.25 3.35-0.14 0.49-0.7 0.66-1.25 0.39-0.55-0.28-1-0.16-1 0.25 0 0.41-1.01 0.85-2.25 0.98-1.24 0.12-2.59 0.91-3 1.75-0.49 0.99-1.36 1.26-2.5 0.79-1.39-0.58-1.54-0.42-0.75 0.74 0.74 1.09 0.67 1.28-0.25 0.73-0.69-0.41-2.61-0.18-4.28 0.51-1.67 0.69-2.68 1.62-2.25 2.07 0.43 0.45-0.12 0.46-1.22 0.02-1.25-0.5-1.76-0.43-1.37 0.18 0.34 0.54 0.12 1.02-0.5 1.07-0.62 0.05-1.92 0.17-2.88 0.25-0.96 0.09-1.52 0.61-1.25 1.16 0.28 0.55-0.06 0.74-0.75 0.43-0.69-0.32-1.92 0.06-2.75 0.83-0.83 0.77-2.06 1.25-2.75 1.07-0.69-0.18-1.81 0.28-2.5 1.02-0.69 0.75-2.15 1.1-3.25 0.79-1.59-0.45-1.8-0.26-1.01 0.9q0.98 1.45 0 0.76c-0.54-0.38-2.69-0.16-4.76 0.5-2.08 0.66-3.76 1.54-3.75 1.95 0.01 0.41-0.43 0.52-0.98 0.25-0.55-0.28-3.67 0.29-6.94 1.25-3.27 0.96-5.74 2.09-5.5 2.5 0.24 0.41-0.8 0.43-2.31 0.05-2.02-0.52-2.55-0.38-2 0.5 0.47 0.74 0.28 1.02-0.5 0.72-0.69-0.26-6.42 0.57-12.75 1.85-6.33 1.28-10.83 2.57-10 2.87 0.83 0.29-0.52 0.33-3 0.07-3.47-0.36-4.16-0.21-3 0.65 1.16 0.86 0.66 0.99-2.25 0.58-2.19-0.32-3.75-0.12-3.75 0.46 0 0.63-2.28 0.74-6.25 0.3-3.88-0.43-6-0.34-5.59 0.25 0.4 0.59-7.09 0.79-20 0.53-11.37-0.23-23.92-0.46-27.91-0.5-3.99-0.04-7.25-0.42-7.25-0.83 0-0.41-2.21-0.64-4.91-0.5-2.93 0.15-4.64-0.13-4.25-0.7 0.41-0.58-0.98-0.68-3.59-0.25-2.34 0.39-4.06 0.36-3.83-0.05 0.23-0.41-2.81-1.38-6.75-2.14-3.94-0.77-7.73-1.11-8.42-0.75-0.69 0.35-1.25 0.3-1.25-0.11 0-0.41-3.48-1.54-7.75-2.5-4.26-0.96-13.82-3.62-21.25-5.9-7.42-2.28-14.27-4.17-15.2-4.21-0.94-0.04-1.49-0.31-1.23-0.6 0.26-0.3-2.8-1.76-6.8-3.24-4-1.49-7.72-2.39-8.26-2q-0.98 0.69 0-0.78c0.79-1.17 0.63-1.33-0.76-0.75-0.96 0.4-1.55 0.39-1.31-0.02 0.24-0.41-1.11-1.31-3-2-1.89-0.69-3.78-1.21-4.19-1.16-0.41 0.04-0.97-0.35-1.25-0.88-0.27-0.53-4.55-3.02-9.5-5.55-4.95-2.52-9.35-4.26-9.78-3.87-0.43 0.39-0.76 0.15-0.75-0.54 0.02-0.69-1.21-1.91-2.72-2.72-1.51-0.81-3.09-1.26-3.5-1-0.41 0.26-0.53 0.13-0.26-0.28 0.27-0.41-0.3-1.3-1.25-1.97-0.96-0.67-2.53-1.23-3.49-1.25-1.12-0.02-1.48-0.47-1-1.26 0.53-0.87 0.24-1.02-1-0.5-0.96 0.4-1.56 0.39-1.32-0.02 0.24-0.41-1.68-2.09-4.25-3.73-2.57-1.64-9.29-6.48-14.93-10.75-5.64-4.27-10.55-7.43-10.91-7.02-0.36 0.41-0.38 0.3-0.04-0.25 0.35-0.55-0.82-2.12-2.59-3.49-1.76-1.36-3.55-2.37-3.96-2.25-0.41 0.13-0.54-0.1-0.28-0.51 0.27-0.41-1.42-2.32-3.75-4.25-2.32-1.92-4.67-3.35-5.22-3.17-0.55 0.19-0.67-0.04-0.26-0.5 0.41-0.46 0.3-1.39-0.25-2.08-0.54-0.69-1.55-0.95-2.24-0.59-0.7 0.37-0.91 0.26-0.47-0.25 0.43-0.5-2.05-3.7-5.5-7.12-3.45-3.41-6.62-6-7.03-5.75-0.41 0.26-0.64-0.1-0.5-0.79 0.14-0.69-0.31-1.14-1-1-0.69 0.14-1.04-0.09-0.79-0.5 0.25-0.41-0.88-2.44-2.5-4.5-1.63-2.06-3.3-3.64-3.71-3.5-0.41 0.14-0.93-0.2-1.15-0.75-0.21-0.55-1.94-3.03-3.83-5.5-1.89-2.48-3.96-4.5-4.6-4.5-0.64 0-1.17-0.45-1.18-1 0-0.55-1.01-2.69-2.25-4.75-1.39-2.33-2.71-3.5-3.49-3.09-0.69 0.36-0.92 0.25-0.52-0.25 0.4-0.5-0.91-3.16-2.92-5.91-2.01-2.75-4.1-5.45-4.63-6q-0.95-0.97-0.09 0.5c0.64 1.08 0.54 1.29-0.35 0.75-0.74-0.45-0.94-1.46-0.51-2.5 0.44-1.06 0.34-1.49-0.25-1.1-0.54 0.36-1.02 0.14-1.06-0.5-0.05-0.63-1.28-3.06-2.75-5.4-1.47-2.34-2.67-4.7-2.67-5.25 0-0.55-0.34-1-0.75-1-0.41-0.01-2.1-2.45-3.75-5.45-1.66-3-3.44-5.13-3.99-4.74-0.58 0.41-0.69 0.18-0.25-0.56 0.41-0.69 0.52-1.92 0.24-2.75-0.3-0.89-1.01-1.19-1.74-0.75q-1.23 0.74-0.5-0.5c0.41-0.69 0.18-2.36-0.51-3.71-0.69-1.35-1.59-2.25-2-2-0.41 0.25-0.42-0.33-0.02-1.29 0.52-1.24 0.37-1.53-0.5-1-0.87 0.53-1.02 0.24-0.5-1 0.52-1.24 0.37-1.53-0.5-1-0.87 0.53-1.02 0.24-0.5-1 0.58-1.39 0.42-1.55-0.75-0.76-1.09 0.73-1.28 0.66-0.73-0.25 0.41-0.68 0.19-2.6-0.5-4.27-0.69-1.67-1.66-2.68-2.16-2.25-0.51 0.44-0.62 0.23-0.25-0.47 0.36-0.69 0.44-2.15 0.16-3.25-0.27-1.1-0.95-1.78-1.5-1.5-0.62 0.31-0.73-0.36-0.29-1.75 0.52-1.63 0.38-2.04-0.5-1.5-0.85 0.53-1 0.23-0.48-1 0.58-1.39 0.42-1.54-0.74-0.75-1.09 0.74-1.28 0.67-0.73-0.25 0.41-0.69 0.52-2.15 0.24-3.25-0.32-1.27-0.95-1.73-1.74-1.25q-1.23 0.74-0.5-0.5c0.41-0.69-0.35-4.51-1.69-8.5-1.33-3.99-3.41-10.63-4.62-14.75-1.21-4.13-2.29-7.95-2.41-8.5-0.11-0.55-0.85-3.79-1.63-7.19-0.83-3.66-1.81-5.91-2.4-5.5-0.58 0.41-0.69 0.18-0.25-0.56 0.41-0.69 0.4-3.02-0.01-5.18-0.41-2.17-0.97-3.79-1.25-3.6-0.27 0.18-0.31-1.31-0.07-3.32 0.24-2.12 0.03-3.38-0.5-3-0.55 0.39-0.76-1.26-0.52-4 0.24-2.68 0.03-4.38-0.5-4.01-0.52 0.38-1.05-3.45-1.23-9-0.18-5.3-0.63-9.87-1-10.14-0.38-0.28-0.32-13.78 0.13-30 0.44-16.23 0.89-31.53 1-34 0.1-2.48 0.54-4.73 0.97-5 0.43-0.28 0.88-3.27 1-6.65 0.13-3.49 0.57-5.65 1.03-5 0.47 0.65 0.68-0.43 0.5-2.5-0.17-2.01-0.08-3.5 0.19-3.32 0.28 0.18 0.84-1.67 1.25-4.1 0.41-2.44 0.42-4.99 0.01-5.68-0.54-0.92-0.36-0.98 0.69-0.25 1.16 0.82 1.34 0.42 0.99-2.14-0.26-1.88-0.05-2.89 0.52-2.5 0.58 0.39 0.68-0.24 0.25-1.61-0.51-1.62-0.38-2.04 0.49-1.5 0.85 0.53 1.06-0.01 0.75-1.88-0.27-1.55-0.05-2.37 0.51-2 0.58 0.38 0.68-0.26 0.25-1.62-0.51-1.62-0.38-2.04 0.49-1.5 0.85 0.53 1.06-0.01 0.75-1.88-0.27-1.55-0.05-2.37 0.51-2 0.58 0.38 0.68-0.26 0.25-1.62-0.51-1.63-0.38-2.04 0.5-1.5 0.88 0.54 1.02 0.13 0.5-1.5-0.39-1.24-0.37-2.05 0.04-1.8 0.41 0.25 1.43-1.66 2.25-4.25 0.83-2.58 1.5-5.15 1.5-5.7 0-0.55 0.24-1.23 0.53-1.5 0.3-0.28 1.76-3.54 3.25-7.25 1.5-3.71 2.39-7.31 1.98-8-0.44-0.74-0.34-0.96 0.25-0.54 0.57 0.41 2.27-2.14 3.99-6 1.65-3.69 3-7.22 3-7.84 0-0.62 0.44-0.84 0.98-0.5 0.59 0.38 0.69-0.06 0.25-1.12-0.52-1.24-0.37-1.53 0.5-1 0.87 0.53 1.02 0.24 0.5-1-0.52-1.24-0.37-1.53 0.5-1 0.9 0.55 1.01 0.21 0.43-1.25-0.44-1.1-0.43-1.66 0.02-1.24 0.45 0.42 1.83-1.05 3.07-3.25 1.24-2.21 1.95-4.57 1.59-5.26-0.36-0.69-0.25-0.92 0.25-0.52 0.5 0.4 2.37-1.74 4.16-4.75 1.88-3.17 2.93-6 2.5-6.72q-0.74-1.23 0.5-0.5c0.8 0.47 1.5-0.07 1.95-1.51 0.38-1.24 0.61-2.59 0.5-3-0.11-0.41 0.25-0.53 0.8-0.25 0.55 0.27 1.44-0.29 1.97-1.25 0.54-0.96 0.65-2.16 0.25-2.66-0.39-0.5-0.16-0.61 0.53-0.25 0.69 0.36 1.3 0.1 1.37-0.59 0.06-0.69 0.06-1.59 0-2-0.07-0.41 0.33-0.53 0.88-0.25 0.55 0.27 1.05-0.06 1.12-0.75 0.06-0.69 0.03-1.7-0.08-2.25-0.12-0.55 0.17-0.67 0.63-0.26 0.45 0.41 1.83-0.72 3.05-2.5 1.22-1.78 1.9-3.69 1.51-4.24-0.39-0.55-0.27-0.68 0.28-0.28 0.54 0.4 2.44-1.18 4.21-3.5 1.77-2.32 2.89-4.63 2.5-5.13-0.4-0.5-0.27-0.63 0.28-0.29 0.55 0.34 2.8-1.71 5-4.54 2.2-2.84 3.89-5.52 3.75-5.96-0.14-0.44 0.09-0.71 0.5-0.6 0.41 0.12 5.69-4.72 11.74-10.75 6.04-6.02 10.99-11.29 11-11.7 0-0.41 0.46-0.8 1.01-0.86 0.55-0.06 2.8-1.74 5-3.72 2.2-1.99 4-4.08 4-4.64 0-0.57 0.45-1.04 1-1.06 0.55-0.01 2.24-0.8 3.75-1.75 1.73-1.08 2.48-2.18 2.01-2.97q-0.73-1.24 0.5-0.5c0.74 0.45 2.75-0.5 4.99-2.36 2.06-1.71 3.64-3.51 3.5-4-0.14-0.49 0.09-0.68 0.5-0.43 0.41 0.25 3.45-1.55 6.75-3.99 3.3-2.45 6.34-4.45 6.75-4.46 0.41-0.01 0.53-0.46 0.25-1.01-0.27-0.55-0.16-0.95 0.25-0.88 0.41 0.06 1.31 0.06 2 0 0.69-0.07 1.03-0.57 0.75-1.12-0.27-0.55-0.16-0.95 0.25-0.88 0.41 0.06 1.31 0.06 2 0 0.69-0.07 1.03-0.57 0.75-1.12-0.27-0.55-0.16-0.91 0.25-0.8 0.41 0.11 1.76-0.12 3-0.5 1.44-0.45 1.98-1.15 1.51-1.95-0.44-0.74-0.33-0.97 0.25-0.57 0.54 0.38 3.14-0.52 5.76-2 2.62-1.47 4.42-3.01 4-3.41-0.42-0.41-0.09-0.63 0.73-0.5 0.83 0.12 7.24-2.59 14.25-6.02 7.01-3.44 13.2-6.25 13.75-6.25 0.55 0 0.83-0.34 0.62-0.75-0.21-0.41 0.13-0.79 0.75-0.84 0.62-0.05 1.92-0.17 2.88-0.25 1.11-0.1 1.48-0.62 1.01-1.41-0.44-0.74-0.34-0.96 0.25-0.55 0.54 0.38 2.65 0.16 4.68-0.5 2.09-0.68 3.4-1.64 3.01-2.2-0.4-0.59-0.18-0.7 0.56-0.25 0.68 0.41 6.75-1.06 13.49-3.27 6.74-2.2 13.91-4.34 15.93-4.75 2.03-0.4 3.54-0.96 3.37-1.23-0.17-0.28 0.87-0.3 2.32-0.05 1.53 0.26 2.36 0.05 1.98-0.5-0.36-0.52 0.54-0.99 2-1.03 1.46-0.04 7.83-1.02 14.15-2.18 6.33-1.15 15.78-2.63 21-3.29 5.23-0.66 19.18-1.52 31-1.91 11.83-0.4 21.97-0.79 22.54-0.88zm-40.79 23.2c-1.24-0.36-7.17-0.07-13.17 0.63-6.01 0.7-10.85 1.55-10.76 1.89 0.09 0.34-1.52 0.43-3.58 0.19-2.18-0.24-3.47-0.04-3.09 0.5 0.38 0.53-1.56 1-4.5 1.1-2.83 0.09-5.27 0.54-5.42 1-0.15 0.46-1.39 0.72-2.75 0.58-1.36-0.14-2.48 0.09-2.48 0.5-0.01 0.41-1.69 0.85-3.75 0.98-2.06 0.12-3.97 0.57-4.25 1-0.27 0.42-1.85 0.87-3.5 1-1.65 0.12-3.11 0.68-3.25 1.25-0.14 0.59-1.2 0.72-2.5 0.31-1.63-0.52-2.04-0.38-1.5 0.5 0.54 0.88 0.13 1.01-1.5 0.5-1.83-0.58-2.06-0.44-1.25 0.74 0.74 1.07 0.67 1.25-0.25 0.71-0.69-0.41-2.6-0.52-4.25-0.24-1.65 0.27-2.77 0.95-2.5 1.5 0.31 0.62-0.36 0.73-1.75 0.29-1.63-0.52-2.04-0.38-1.5 0.5q0.73 1.2-0.75 0.71c-0.82-0.28-1.5-0.05-1.5 0.5 0 0.56-0.76 0.68-1.75 0.27-1.24-0.52-1.53-0.37-1 0.5q0.74 1.22-0.75 0.73c-0.82-0.28-1.5-0.05-1.5 0.5 0 0.56-0.76 0.68-1.75 0.27-1.24-0.52-1.53-0.37-1 0.5q0.74 1.22-0.75 0.73c-0.82-0.28-1.5-0.05-1.5 0.5 0 0.55-0.34 0.79-0.75 0.53-0.41-0.25-2.64 0.31-4.96 1.25-2.31 0.95-4 2.06-3.75 2.47 0.25 0.41-0.33 0.42-1.29 0.02-1.39-0.58-1.55-0.42-0.76 0.75 0.73 1.09 0.66 1.28-0.25 0.73-0.68-0.41-2.35-0.19-3.7 0.5-1.35 0.69-2.15 1.7-1.76 2.25 0.42 0.6 0.2 0.7-0.54 0.25-0.68-0.41-2.35-0.19-3.7 0.5-1.35 0.69-2.25 1.59-2 2 0.25 0.41-0.33 0.42-1.29 0.02-1.24-0.52-1.53-0.37-1 0.5 0.53 0.87 0.24 1.02-1 0.5-1.39-0.58-1.55-0.42-0.76 0.75 0.73 1.09 0.66 1.28-0.25 0.73-0.68-0.41-2.59 0.04-4.24 1-1.65 0.96-2.67 2.16-2.25 2.66 0.42 0.51 0.19 0.62-0.5 0.25-0.69-0.36-3.29 0.58-5.78 2.09-2.48 1.51-4.32 2.97-4.08 3.25 0.24 0.27-0.08 0.54-0.72 0.58-0.65 0.04-3.1 1.39-5.46 3-2.36 1.61-4.27 3.03-4.25 3.17 0.02 0.14 0.6-0.09 1.28-0.5q1.23-0.74 0.5 0.5c-0.41 0.69-1.19 1.02-1.74 0.75-0.55-0.28-3.81 1.61-7.25 4.19-3.44 2.58-8.95 6.93-12.25 9.68-3.3 2.75-6.67 5.66-7.5 6.46-1.31 1.27-1.31 1.34-0.01 0.56 1.07-0.64 1.28-0.54 0.75 0.36-0.41 0.69-1.08 1.04-1.49 0.78-0.41-0.26-5.36 4.01-11 9.5-5.64 5.48-10.02 10.42-9.75 10.97 0.28 0.55-0.29 1.56-1.25 2.25-1.59 1.14-1.63 1.07-0.39-0.75 0.75-1.1-0.25-0.2-2.23 2-1.97 2.2-3.37 4.34-3.11 4.75 0.26 0.41-0.08 1.09-0.76 1.5-0.88 0.53-1 0.31-0.42-0.75 0.45-0.83-0.12-0.49-1.26 0.75-1.15 1.24-1.85 2.7-1.58 3.25 0.28 0.55-0.06 1.34-0.74 1.75-0.89 0.54-0.99 0.33-0.35-0.75q0.89-1.5-0.12-0.5c-0.55 0.55-2.87 3.36-5.15 6.25-2.5 3.18-3.85 5.74-3.4 6.5 0.43 0.73 0.33 0.98-0.25 0.59-0.54-0.36-3.46 2.95-6.49 7.35-3.02 4.41-5.5 8.61-5.5 9.33 0 0.72-0.22 1.12-0.5 0.89-0.27-0.23-1.29 0.94-2.25 2.59-0.96 1.65-1.42 3.56-1.01 4.25 0.44 0.74 0.34 0.97-0.25 0.56-0.54-0.39-1.78 0.63-2.74 2.25-0.96 1.61-1.42 3.5-1.01 4.19q0.73 1.24-0.5 0.5c-0.73-0.44-1.44-0.14-1.74 0.75-0.27 0.83-0.17 2.06 0.24 2.75 0.44 0.74 0.33 0.97-0.25 0.56-0.55-0.39-2.42 2.14-4.24 5.75-1.83 3.63-2.93 6.99-2.51 7.69 0.55 0.92 0.36 0.99-0.73 0.25-1.19-0.81-1.32-0.63-0.67 1 0.44 1.1 0.43 1.64-0.02 1.2-0.45-0.44-1.61 1.25-2.57 3.75-0.96 2.5-1.41 5.11-1 5.79 0.45 0.74 0.34 0.96-0.25 0.56-0.58-0.4-1.94 2.02-3.25 5.76-1.24 3.54-1.92 7-1.51 7.69 0.54 0.92 0.36 0.99-0.71 0.25-1.18-0.81-1.32-0.58-0.74 1.25 0.44 1.39 0.33 2.06-0.29 1.75-0.55-0.28-1.22 0.62-1.5 2-0.27 1.37-0.27 2.95 0 3.5 0.28 0.55 0.05 1-0.5 1-0.55 0-0.77 0.67-0.5 1.5 0.28 0.83 0.16 1.31-0.25 1.07-0.41-0.24-1.82 3.7-3.14 8.75-1.31 5.05-2.1 9.97-1.75 10.93 0.37 1.02 0.22 1.54-0.36 1.25-0.55-0.28-1.25 1.4-1.56 3.75-0.3 2.34-0.31 4.47-0.01 4.75 0.31 0.27 0.09 0.95-0.48 1.5-0.57 0.55-0.79 2.69-0.49 4.75 0.39 2.73 0.22 3.55-0.64 3-0.84-0.54-1.05 0.27-0.75 2.9 0.24 2.01 0.09 3.47-0.32 3.25-0.41-0.22-1.03 3.99-1.36 9.35-0.34 5.36-0.35 11.33-0.03 13.25 0.4 2.43 0.29 3.04-0.37 2-0.64-0.99-0.96 3.48-0.97 13.25-0.01 8.85 0.38 14.95 0.98 15.25 0.55 0.27 1 0.95 1 1.5 0 0.55-0.45 0.77-1 0.5-0.55-0.28-1-0.05-1 0.5 0 0.55 0.34 1 0.75 1.01 0.41 0.01 0.86 4.39 0.98 9.75 0.14 5.56 0.68 9.85 1.25 9.99 0.63 0.15 0.75 1.87 0.32 4.5-0.43 2.61-0.33 4 0.25 3.6 0.54-0.38 1.03 1.12 1.14 3.5 0.1 2.28 0.22 5.16 0.25 6.4 0.03 1.24 0.51 2.47 1.06 2.75 0.55 0.27 0.78 0.95 0.5 1.5-0.27 0.55-0.16 1.01 0.25 1.02 0.41 0.01 0.64 1.14 0.5 2.5-0.14 1.36 0.2 2.48 0.75 2.48 0.55 0 0.75 0.56 0.45 1.25-0.3 0.69 0.33 4.62 1.4 8.75 1.06 4.12 3 10.96 4.29 15.2 1.4 4.55 2.77 7.41 3.36 7.01 0.59-0.41 0.7-0.19 0.25 0.55-0.41 0.68 0.04 3.47 1 6.19 0.96 2.72 2.09 4.75 2.5 4.5 0.41-0.25 0.42 0.34 0.02 1.3-0.44 1.06-0.34 1.5 0.25 1.12 0.54-0.34 1.02-0.12 1.07 0.5 0.05 0.62 0.17 1.92 0.25 2.88 0.09 0.96 0.61 1.52 1.16 1.25 0.55-0.28 0.74 0.06 0.43 0.75-0.32 0.69 0.53 3.5 1.88 6.25 1.34 2.75 3.74 7.71 5.32 11.02 1.58 3.32 5.35 10.16 8.37 15.22 3.03 5.06 5.84 8.98 6.25 8.73 0.41-0.26 0.7-0.13 0.63 0.28-0.06 0.41-0.06 1.31 0 2 0.07 0.69 0.68 0.95 1.37 0.59 0.69-0.36 0.92-0.25 0.53 0.25-0.4 0.5-0.29 1.7 0.25 2.66 0.54 0.97 1.53 1.45 2.22 1.09 0.69-0.36 0.92-0.25 0.53 0.25-0.4 0.5-0.29 1.7 0.25 2.66 0.58 1.04 1.47 1.45 2.21 1 0.74-0.45 0.95-0.35 0.53 0.25-0.4 0.55 0.96 3.36 3.01 6.23 2.04 2.88 4.06 5.02 4.47 4.75 0.41-0.26 0.54-0.14 0.28 0.27-0.26 0.41 0.41 1.99 1.5 3.5 1.08 1.51 2.42 2.52 2.97 2.25 0.55-0.28 1.33 0.06 1.74 0.75 0.54 0.91 0.33 0.99-0.75 0.31-1.31-0.83-1.3-0.73 0.01 0.79 0.83 0.96 1.95 1.71 2.5 1.67 0.55-0.03 3.38-1.52 6.28-3.29 2.9-1.78 4.93-3.64 4.5-4.14-0.44-0.51-0.23-0.62 0.47-0.25 0.69 0.36 2.15 0.1 3.25-0.59 1.1-0.69 1.66-1.66 1.25-2.16-0.42-0.51-0.19-0.62 0.5-0.25 0.69 0.36 5.07-1.7 9.73-4.59 4.66-2.89 8.15-5.62 7.75-6.07-0.4-0.45 0.17-0.46 1.27-0.02 1.25 0.5 1.75 0.43 1.35-0.18-0.36-0.54 0.25-0.98 1.36-0.98 1.52 0 3.03 2.01 6.15 8.2 2.28 4.52 4.48 8 4.89 7.75 0.41-0.25 0.66-0.11 0.55 0.3-0.11 0.41 0.12 1.76 0.5 3 0.39 1.24 1.15 2.02 1.7 1.75 0.55-0.28 0.78 0.17 0.5 1-0.27 0.83 0.06 1.73 0.75 2.01 0.69 0.28 1.29 1.07 1.34 1.75 0.06 0.68 2.08 4.48 4.5 8.44 2.43 3.96 4.75 7 5.16 6.75 0.41-0.25 0.66-0.11 0.55 0.3-0.11 0.41 0.12 1.76 0.5 3 0.39 1.24 1.04 2.07 1.45 1.85 0.41-0.23 0.79 0.11 0.83 0.75 0.05 0.63 2.86 5.09 6.25 9.9 3.39 4.81 6.51 8.78 6.92 8.83 0.41 0.04 1.65 0.24 2.75 0.43l2 0.36c-3.1-2.29-3.89-3.16-3.75-3.41 0.14-0.25 0.25-0.91 0.25-1.46 0-0.55-0.56-0.66-1.24-0.25q-1.23 0.74-0.5-0.5c0.41-0.69-0.27-3.04-1.51-5.26-1.24-2.2-2.66-3.67-3.16-3.25-0.51 0.42-0.62 0.21-0.25-0.49 0.36-0.69-0.13-2.58-1.09-4.19-0.96-1.62-2.2-2.64-2.75-2.27-0.59 0.41-0.7 0.19-0.25-0.55 0.41-0.68 0.53-1.91 0.25-2.74-0.3-0.89-1.01-1.19-1.74-0.75q-1.23 0.74-0.5-0.5c0.41-0.69 0.52-1.92 0.24-2.75-0.27-0.83-0.95-1.28-1.5-1-0.55 0.27-0.89 0.16-0.76-0.25 0.13-0.41-0.32-2.21-1-4q-1.24-3.24-2.49-2.51-1.24 0.73-0.5-0.5c0.42-0.7-0.66-4.08-2.5-7.79-1.82-3.67-3.65-6.2-4.16-5.75-0.52 0.45-0.63 0.26-0.25-0.45 0.36-0.69-0.13-3.06-1.09-5.26-0.96-2.21-2.12-3.67-2.57-3.25-0.45 0.42-0.46-0.14-0.02-1.24 0.65-1.63 0.52-1.81-0.67-1q-1.47 1-0.76 0c0.4-0.55-0.28-3.6-1.51-6.78-1.22-3.19-2.56-5.44-2.98-5-0.42 0.43-0.44-0.35-0.04-1.72 0.53-1.83 0.4-2.3-0.49-1.75-0.88 0.54-1.01 0.13-0.5-1.5 0.52-1.63 0.38-2.04-0.5-1.5-0.94 0.58-0.96 0.02-0.1-2.5 0.61-1.79 1.18-3.99 1.25-4.9 0.08-0.91 0.57-1.36 1.1-1 0.59 0.39 0.68-0.23 0.25-1.6-0.39-1.24-0.37-2.04 0.04-1.79 0.41 0.25 1.31-0.65 2-2 0.69-1.35 0.92-3.02 0.51-3.71q-0.73-1.24 0.5-0.5 1.24 0.74 2.48-2.5c0.68-1.79 1.13-3.59 1-4-0.13-0.41 0.21-0.75 0.76-0.75 0.55 0 0.78-0.67 0.5-1.5-0.27-0.83-0.05-1.28 0.5-1 0.55 0.27 1.31-0.51 1.7-1.75 0.38-1.24 0.61-2.59 0.5-3-0.11-0.41 0.25-0.75 0.8-0.75 0.56 0 0.68-0.76 0.27-1.75-0.52-1.24-0.37-1.53 0.5-1 0.71 0.43 1.29 0.22 1.38-0.5 0.09-0.69 0.2-1.83 0.25-2.54 0.06-0.7 0.62-1.6 1.26-2 0.64-0.39 1.32-1.37 1.5-2.19 0.19-0.81 0.9-2.05 1.59-2.75 0.69-0.7 1.03-1.72 0.75-2.27-0.27-0.55 0.18-1.23 1-1.5 0.83-0.28 1.28-1.17 1-2-0.27-0.83-0.14-1.39 0.31-1.25 0.44 0.14 1.9-0.88 3.25-2.25 1.34-1.38 3.12-2.67 3.94-2.87 0.83-0.2 3.53-0.61 6-0.91 2.48-0.3 5.06-1.15 5.75-1.89 0.69-0.73 1.03-2 0.75-2.83-0.27-0.83-0.05-1.5 0.5-1.5 0.55 0 0.89-1.76 0.75-3.91-0.15-2.28 0.14-3.63 0.69-3.25 0.57 0.4 0.77-1.19 0.5-3.98-0.24-2.55-0.21-4.5 0.06-4.34 0.28 0.15 0.5-4.85 0.5-11.12 0-6.27-0.34-11.4-0.75-11.4-0.41 0-0.47-0.56-0.12-1.25 0.34-0.69 0.34-2.71 0-4.5q-0.63-3.25-1.81-2.5c-0.88 0.55-0.96 0.09-0.32-1.75 0.64-1.84 0.56-2.3-0.32-1.75-0.76 0.48-1.11 0.13-0.98-1 0.11-0.96-0.46-3.87-1.25-6.45-0.8-2.59-1.67-4.56-1.95-4.37-0.27 0.18-0.54-0.18-0.59-0.8-0.05-0.62-0.17-1.92-0.25-2.88-0.1-1.11-0.61-1.48-1.4-1q-1.23 0.74-0.5-0.5c0.41-0.69-0.05-3.06-1.01-5.26-0.96-2.21-2.16-3.67-2.66-3.25-0.51 0.42-0.62 0.21-0.25-0.49 0.36-0.69 0.44-2.15 0.16-3.25-0.32-1.27-0.95-1.73-1.74-1.25q-1.23 0.74-0.5-0.5c0.41-0.69-0.02-3.16-0.94-5.5-0.93-2.34-2.09-4.48-2.59-4.75-0.49-0.28-0.86-0.84-0.82-1.25 0.05-0.41 0.09-1.65 0.09-2.75 0-1.1-0.45-1.78-1-1.5-0.62 0.31-0.73-0.36-0.29-1.75 0.58-1.83 0.44-2.06-0.74-1.25-1.07 0.74-1.25 0.67-0.71-0.25 0.41-0.69 0.52-2.38 0.24-3.75-0.27-1.38-0.95-2.28-1.5-2-0.62 0.31-0.73-0.36-0.29-1.75 0.57-1.81 0.44-2.05-0.68-1.25-1.14 0.82-1.24 0.54-0.53-1.5 0.72-2.06 0.62-2.32-0.56-1.5-1.04 0.73-1.22 0.67-0.68-0.25 0.41-0.69 0.52-2.6 0.24-4.25-0.27-1.65-0.95-2.78-1.5-2.5-0.62 0.31-0.73-0.36-0.29-1.75 0.43-1.36 0.33-2-0.25-1.62-0.56 0.37-0.78-0.45-0.51-2 0.26-1.52 0.04-2.36-0.5-2-0.55 0.37-0.76-0.47-0.5-2 0.31-1.87 0.1-2.41-0.75-1.88-0.88 0.55-1.01 0.01-0.5-2 0.58-2.26 0.45-2.57-0.73-1.75-1.15 0.8-1.28 0.61-0.67-1 0.42-1.1 0.41-4.11-0.02-6.68-0.43-2.57-1.12-4.48-1.53-4.25-0.41 0.24-0.43-1.03-0.05-2.82 0.44-2 0.34-3-0.25-2.6-0.55 0.39-1.03-1.28-1.13-4-0.1-2.56-0.44-15.11-0.75-27.9-0.45-18.24-0.3-23.25 0.68-23.23 0.89 0.02 1.03-0.84 0.5-3-0.46-1.85-0.36-3.02 0.25-3.02 0.55 0 0.78-0.9 0.5-2-0.27-1.1-0.05-2 0.5-2 0.55 0 0.78-0.67 0.5-1.5-0.27-0.83-0.16-1.3 0.25-1.05 0.41 0.24 1.39-1.45 2.17-3.75 0.79-2.31 1.57-4.76 1.75-5.45 0.18-0.69-0.12-1.48-0.67-1.75-0.55-0.28-2.24 0.68-3.75 2.12-1.51 1.45-1.85 2.03-0.75 1.3 1.73-1.15 1.83-1.13 0.68 0.13-0.72 0.8-2.18 1.56-3.25 1.7-1.45 0.19-1.78-0.19-1.32-1.5 0.34-0.96 0.67-2.42 0.75-3.25 0.08-0.83 0.7-2.06 1.39-2.75 0.69-0.69 1.03-2.15 0.75-3.25-0.27-1.1-0.05-2 0.5-2 0.55 0 1.29-1.01 1.65-2.25 0.35-1.24 0.58-2.36 0.5-2.5-0.08-0.14 0.75-1.15 1.85-2.25 1.16-1.16 1.69-2.53 1.26-3.25q-0.73-1.24 0.5-0.5c0.68 0.41 1.24 0.3 1.24-0.25 0-0.55-0.11-1.21-0.25-1.46-0.14-0.25 0.65-1.13 1.75-1.97 1.1-0.83 1.78-1.54 1.5-1.58-0.27-0.05 0.95-1.75 2.72-3.79 1.77-2.03 2.9-4.15 2.51-4.7-0.43-0.6-0.21-0.7 0.53-0.25 0.73 0.44 1.75 0 2.49-1.09 0.69-1 3.24-4.04 5.66-6.75 2.43-2.7 4.04-4.24 3.58-3.41-0.46 0.84 0.12 0.61 1.32-0.5 1.18-1.1 1.86-2.45 1.51-3-0.35-0.55-0.23-0.68 0.27-0.29 0.5 0.39 2.37-0.4 4.16-1.75 2.04-1.55 2.98-2.92 2.51-3.71-0.44-0.74-0.34-0.96 0.25-0.53 0.54 0.39 2.45-0.28 4.23-1.5 1.78-1.22 2.91-2.63 2.5-3.13-0.41-0.5-0.18-0.62 0.51-0.25 0.69 0.36 2.36-0.13 3.72-1.09 1.36-0.96 2.14-2.12 1.75-2.58-0.4-0.46-0.27-0.69 0.28-0.52 0.55 0.18 2.46-0.23 4.25-0.91q3.24-1.24 2.51-2.49-0.73-1.24 0.5-0.5c0.68 0.41 1.92 0.52 2.74 0.25 0.88-0.29 1.2-1.02 0.76-1.75q-0.73-1.24 0.5-0.5c0.69 0.42 1.91 0.08 2.74-0.75 0.83-0.83 1.16-1.74 0.75-2.03-0.41-0.29-1.76-0.51-3-0.5-1.24 0.02-2.47 0.48-2.75 1.03-0.28 0.56-1.5 0.68-2.75 0.29-1.63-0.52-2.04-0.38-1.5 0.5q0.76 1.22-1.25 0.96c-1.1-0.14-2-0.59-2-1 0-0.41 1.35-1.54 3-2.5 1.65-0.96 2.67-2.12 2.25-2.58-0.41-0.46-0.29-0.69 0.27-0.5 0.56 0.18 2.91-0.57 5.21-1.67 2.36-1.12 3.89-2.44 3.49-3-0.42-0.6-0.2-0.7 0.54-0.25 0.68 0.41 1.92 0.52 2.74 0.25 0.83-0.28 1.28-0.95 1-1.5-0.3-0.6 0.2-0.71 1.25-0.27 1.39 0.58 1.55 0.42 0.76-0.75-0.73-1.09-0.66-1.28 0.25-0.73 0.68 0.41 4.05-0.35 7.49-1.68 3.44-1.34 9.98-3.48 14.54-4.75 4.56-1.28 7.94-2.66 7.5-3.08-0.43-0.42 0.22-0.53 1.46-0.25 1.24 0.28 2.25 0.06 2.25-0.49 0-0.55 0.9-0.78 2-0.5 1.1 0.27 2 0.05 2-0.5 0-0.55 0.56-0.76 1.25-0.46 0.69 0.3 6.88-0.45 13.75-1.66 10.53-1.85 16.46-2.22 37.65-2.29 15.11-0.05 24.9 0.28 24.5 0.83-0.38 0.53 1.13 0.74 3.6 0.5 2.33-0.23 4.25-0.08 4.25 0.33 0 0.41 1.12 0.64 2.48 0.5 1.36-0.14 2.49 0.09 2.5 0.5 0.01 0.41 1.15 0.52 2.52 0.25 1.38-0.28 2.5-0.16 2.5 0.25 0 0.41 1.74 0.75 3.87 0.75h3.87c-3.67-3.49-4.74-4.73-4.74-5 0-0.28 2.14-0.39 4.75-0.25 2.61 0.14 4.98 0.6 5.25 1.02 0.28 0.43 2.14 0.88 4.15 1 2.04 0.13 3.36 0.65 3 1.18-0.38 0.55 0.45 0.76 1.98 0.5 1.45-0.25 2.49-0.23 2.31 0.05-0.17 0.27 2.13 1.29 5.12 2.25 2.99 0.96 6 1.45 6.69 1.09 0.71-0.37 0.9-0.27 0.45 0.25-0.44 0.51 1.2 1.68 3.75 2.66 2.5 0.96 5.11 1.42 5.8 1.01 0.92-0.55 0.99-0.36 0.25 0.73-0.79 1.16-0.64 1.32 0.75 0.74 1.24-0.52 1.53-0.37 1 0.5-0.53 0.87-0.24 1.02 1 0.5 1.05-0.44 1.55-0.33 1.25 0.27-0.27 0.55 0.06 1.05 0.75 1.12 0.69 0.06 1.59 0.06 2 0 0.41-0.07 0.75 0.33 0.75 0.88 0 0.55 0.45 0.77 1 0.5 0.55-0.28 1.23 0.29 1.51 1.25 0.28 0.96 0.84 1.42 1.25 1.03 0.41-0.4 1.53-0.29 2.49 0.25 1.4 0.77 1.69 0.62 1.44-0.78-0.17-0.96-0.84-1.64-1.5-1.5-0.65 0.14-1.08-0.31-0.94-1 0.14-0.69-0.31-1.14-1-1-0.69 0.14-1.04-0.09-0.78-0.5 0.26-0.41-0.52-1.67-1.75-2.8-1.22-1.13-4.01-3.38-6.2-5-2.19-1.62-3.58-2.28-3.1-1.45 0.65 1.13 0.56 1.25-0.38 0.5-0.69-0.55-0.98-1.56-0.65-2.25 0.48-0.98 1.47-0.93 4.61 0.25 2.2 0.82 4.56 1.17 5.25 0.76 0.92-0.55 0.99-0.36 0.25 0.73-0.79 1.16-0.64 1.32 0.75 0.74 1.23-0.52 1.53-0.37 1 0.48-0.54 0.88-0.13 1.02 1.5 0.5 1.39-0.44 2.06-0.33 1.75 0.29-0.27 0.55 0.17 1.22 1 1.5 0.83 0.27 1.28 0.05 1-0.5-0.27-0.55 0.17-0.78 1-0.5 0.83 0.27 1.31 0.84 1.08 1.25-0.23 0.41 1.35 1.76 3.5 3 2.16 1.24 3.66 1.69 3.33 1-0.32-0.69 0.35-0.13 1.48 1.25 1.14 1.37 2.08 2.05 2.1 1.5 0.02-0.55 0.47-0.33 0.99 0.5 0.52 0.82 1.53 1.5 2.23 1.5 0.71 0 1.29 0.45 1.29 1.01 0 0.55 2.48 3.68 5.5 6.95 3.03 3.27 6.85 7.29 8.5 8.92 1.65 1.64 2.33 2.64 1.5 2.22-0.83-0.41-0.51 0.07 0.71 1.07 1.21 1.01 1.93 2.17 1.58 2.58-0.34 0.41-0.1 0.75 0.54 0.75 0.65 0 1.17 0.67 1.17 1.5 0 0.82 0.56 1.51 1.25 1.52 0.9 0.02 1.04-0.88 0.49-3.25-0.42-1.8-0.76-3.61-0.75-4.02 0-0.41-0.33-0.58-0.74-0.37-0.41 0.21-0.55-0.8-0.3-2.25 0.31-1.87 0.1-2.41-0.75-1.88-0.87 0.54-1 0.12-0.49-1.5 0.58-1.83 0.44-2.07-0.75-1.26-1.07 0.73-1.26 0.66-0.71-0.25 0.41-0.68 0.53-2.14 0.25-3.24-0.27-1.1-0.95-1.78-1.5-1.5-0.6 0.3-0.71-0.2-0.27-1.25 0.52-1.24 0.37-1.53-0.5-1-0.86 0.52-1.08 0.15-0.73-1.25 0.28-1.1 0.84-2 1.25-2.01 0.41 0 2.21 1.35 4 3 1.79 1.66 3.03 3.23 2.75 3.51-0.27 0.27 1.16 2.19 3.19 4.25 2.02 2.06 3.73 4.2 3.8 4.75 0.06 0.55 1.55 3.92 3.31 7.5 1.76 3.57 3.2 7.06 3.2 7.75 0 0.69 0.45 1.02 1 0.75 0.62-0.31 0.73 0.36 0.29 1.75-0.58 1.83-0.44 2.06 0.74 1.25q1.45-1 0.8 0c-0.37 0.55-0.36 5.61 0.01 11.25 0.36 5.64 0.3 10.36-0.14 10.5-0.44 0.14-0.89 1.89-1 3.9-0.11 2.08-0.61 3.37-1.16 3-0.59-0.4-0.68 0.32-0.24 1.85 0.4 1.37 0.38 2.16-0.04 1.75-0.42-0.41-1.78 1.62-3.02 4.5-1.25 2.89-2.03 5.36-1.75 5.5 0.28 0.14-0.39 1.15-1.49 2.25-1.1 1.1-1.77 2.45-1.5 3 0.28 0.55-0.17 1.22-1 1.5-0.83 0.27-1.27 0.95-1 1.5 0.28 0.55 0.05 1-0.5 1-0.55 0-1 0.67-1 1.5 0 0.83 0.54 2.51 1.2 3.75 0.66 1.24 1.32 2.7 1.46 3.25 0.14 0.55 1.29 4.51 2.55 8.81 1.26 4.29 2.65 7.44 3.09 7 0.44-0.45 0.68 0.09 0.52 1.19-0.15 1.1 0.05 3.91 0.45 6.25 0.4 2.34 1.07 4.08 1.48 3.87 0.41-0.21 0.55 0.8 0.3 2.25-0.31 1.87-0.1 2.41 0.75 1.88 0.87-0.54 1-0.12 0.49 1.5-0.43 1.36-0.33 2 0.25 1.62 0.56-0.37 0.78 0.45 0.51 2-0.36 2.13-0.17 2.44 0.99 1.63 1.06-0.74 1.24-0.67 0.7 0.25-0.41 0.69-0.51 2.83-0.24 4.75 0.35 2.44 0.87 3.27 1.74 2.75q1.23-0.74 0.5 0.5c-0.41 0.69 0.16 5.52 1.26 10.75 1.45 6.89 2.41 9.5 3.5 9.5 0.83 0 1.5 0.45 1.5 1 0 0.55 0.34 0.9 0.75 0.79 0.41-0.12 1.65 0.32 2.75 0.97 1.1 0.65 2.23 0.96 2.5 0.69 0.28-0.27 1.17 0.3 2 1.28 1.34 1.58 1.34 1.66-0.05 0.77-0.85-0.55-0.62-0.19 0.5 0.79 1.13 0.99 1.6 1.77 1.05 1.74-0.55-0.04-0.43 0.51 0.27 1.2 0.69 0.7 1.26 2.06 1.25 3.02-0.01 0.96-0.47 1.75-1.02 1.75-0.55 0-0.89 1.8-0.75 4 0.14 2.2-0.11 4.11-0.55 4.25-0.44 0.14-0.89 2.61-1 5.49-0.11 2.89-0.54 5.25-0.95 5.25-0.41 0.01-0.52 0.91-0.25 2.01 0.28 1.1 0.05 2.22-0.5 2.5-0.55 0.27-0.77 1.4-0.5 2.5 0.28 1.1 0.05 2-0.5 2-0.55 0-0.77 0.67-0.5 1.5 0.28 0.83 0.05 1.5-0.5 1.5-0.55 0-0.99 2.14-0.98 4.75 0.01 2.61-0.55 5.35-1.25 6.08-1.03 1.08-0.99 1.49 0.23 2.21 0.83 0.49 1.52 1.24 1.55 1.67 0.03 0.44 0.36 1.8 0.75 3.04 0.45 1.44 1.14 1.98 1.94 1.5q1.23-0.74 0.5 0.5c-0.41 0.69-0.07 1.92 0.76 2.75 0.83 0.83 1.28 1.5 1 1.5-0.27 0-0.05 1.35 0.5 3 0.55 1.65 1.34 3.01 1.75 3.01 0.41 0.01 0.46 2.15 0.11 4.75-0.35 2.61-0.36 5.19-0.01 5.74 0.37 0.59 0.12 0.69-0.61 0.25-0.68-0.41-1.24-0.3-1.24 0.25 0 0.55-0.11 1.45-0.25 2-0.14 0.55-0.55 0.89-0.92 0.75-0.37-0.14-1.72 0.71-3 1.88-1.28 1.17-4.02 2.75-6.09 3.5-2.07 0.75-3.76 1.71-3.75 2.12 0 0.41-1.68 0.43-3.74 0.05-2.8-0.53-3.56-0.4-3 0.5 0.56 0.89-0.33 1.05-3.5 0.62-2.35-0.32-3.73-0.21-3.1 0.25 0.65 0.46-2.89 0.82-8 0.82-7.32-0.01-9.15-0.3-9.15-1.46 0-0.8 1.35-2.15 3-2.99 1.65-0.85 3.23-1.77 3.5-2.04 0.28-0.28 1.4-0.65 2.5-0.83 1.1-0.18 4.7-0.55 8-0.82 3.3-0.27 6.11-0.91 6.25-1.42 0.14-0.51 0.92-0.71 1.75-0.43 0.83 0.27 1.5 0.05 1.5-0.5 0-0.55 0.45-0.78 1-0.5 0.55 0.27 2.07-0.06 3.38-0.75 1.31-0.69 3.33-2.49 4.5-4 1.35-1.75 2.12-4.21 2.12-6.75 0-2.86-0.66-4.64-2.31-6.25-1.27-1.24-3.74-4.39-5.5-7-1.75-2.61-3.19-4.98-3.19-5.25 0-0.28-0.9-1.4-2-2.5-1.16-1.16-1.69-2.53-1.26-3.25q0.73-1.24-0.5-0.5c-0.72 0.43-1.29 0.22-1.36-0.5-0.06-0.69-0.06-1.59 0-2 0.07-0.41-0.22-0.75-0.63-0.75-0.41 0-0.81-0.56-0.87-1.25-0.07-0.69-1.42-4.06-3-7.49-1.59-3.43-3.25-5.9-3.7-5.5-0.45 0.41-0.57-0.05-0.25-1.01 0.31-0.96 0.12-1.75-0.43-1.75-0.55 0-0.77-0.67-0.5-1.5 0.28-0.83 0.05-1.5-0.5-1.5-0.55 0-0.77-0.67-0.5-1.5 0.28-0.83 0.05-1.5-0.5-1.5-0.56 0-0.67-0.67-0.25-1.5 0.46-0.92 0.07-2.18-1-3.25-0.97-0.96-1.45-2.09-1.09-2.5 0.37-0.41-0.08-0.75-0.99-0.75-0.92 0-1.44 0.45-1.17 1 0.28 0.55 0.05 1-0.5 1-0.57 0-0.71 0.96-0.32 2.25 0.49 1.61 0.35 2.04-0.5 1.5-0.83-0.53-1.4 0.82-1.91 4.5-0.4 2.89-0.74 5.92-0.75 6.75-0.01 0.83-0.36 1.72-0.78 2-0.42 0.27-0.91 1.62-1.08 3-0.17 1.37-1.71 4.75-3.41 7.5-1.69 2.75-5.05 6.8-7.46 9-2.4 2.2-4.8 4.13-5.33 4.29-0.53 0.17-1.97 0.5-3.21 0.75-1.24 0.25-2.02 0.91-1.75 1.46 0.28 0.55-0.17 0.77-1 0.5-0.83-0.28-1.5-0.05-1.5 0.5 0 0.55-0.67 0.77-1.5 0.5-0.83-0.28-1.5-0.05-1.5 0.5 0 0.58-0.94 0.7-2.25 0.29-1.81-0.57-2.05-0.44-1.25 0.68 0.79 1.11 0.58 1.26-1 0.75-1.1-0.36-6.57-0.78-12.16-0.93-6.34-0.18-9.91-0.66-9.5-1.27 0.4-0.59-0.03-0.69-1.09-0.25-0.96 0.4-1.54 0.39-1.29-0.02 0.26-0.41-0.71-1.42-2.14-2.25-1.44-0.83-4.14-3.53-6-6-1.86-2.48-3.37-5.29-3.35-6.25 0.02-0.96-0.31-1.57-0.72-1.34-0.41 0.22-0.77-1.02-0.79-2.75-0.02-1.74-0.17-6.76-0.32-11.16-0.19-5.55-0.54-7.39-1.14-6-0.73 1.71-0.87 1.75-0.93 0.25-0.04-0.96 0.27-1.93 0.68-2.15 0.41-0.22 0.64-2.92 0.5-6-0.15-3.33-0.66-5.4-1.25-5.1-0.55 0.27-0.89-0.51-0.75-1.75 0.23-2.11-0.15-2.26-6.25-2.43-4.75-0.13-5.83 0.06-4 0.69 1.65 0.57 0.45 0.67-3.5 0.28-3.3-0.32-6.67-0.19-7.5 0.29-0.83 0.48-4.2 0.75-7.5 0.6-4.18-0.19-5.54 0.02-4.5 0.7 1.01 0.66-0.8 0.78-5.5 0.36-4.29-0.38-6.75-0.26-6.36 0.32 0.39 0.56-1.41 0.77-4.5 0.5-3.8-0.32-4.94-0.12-4.39 0.75 0.57 0.9-0.84 1.01-5.76 0.44-4.17-0.48-6.5-0.39-6.5 0.25 0 0.55-3.48 1.18-7.74 1.4-4.26 0.23-10.11 0.45-13 0.5-2.88 0.06-5.25 0.32-5.25 0.6-0.01 0.27-2.14 0.56-4.75 0.63-2.61 0.07-8.87 0.3-13.91 0.5-5.04 0.2-9.39 0.59-9.66 0.87-0.28 0.27-0.32 1.74-0.09 3.25 0.22 1.51 0.86 2.52 1.41 2.25 0.55-0.28 0.78 0.17 0.5 1-0.27 0.83-0.95 1.5-1.5 1.5-0.55 0-1-0.45-1-1 0-0.55-0.56-0.7-1.25-0.34-0.69 0.36-0.93 0.25-0.53-0.25 0.39-0.5-0.22-2.04-1.36-3.41-1.14-1.38-3.49-3.5-5.22-4.72-1.73-1.22-3.48-2.01-3.89-1.75-0.41 0.26-0.97-0.2-1.25-1.03-0.27-0.83-0.95-1.28-1.5-1-0.55 0.27-1 0.05-1-0.5 0-0.55-2.14-1.66-4.75-2.47-2.61-0.81-5.09-1.26-5.5-1-0.41 0.26-0.97 0.02-1.25-0.53-0.3-0.6-3.4-0.8-7.75-0.5-3.99 0.28-8.6 1.14-10.25 1.92-1.65 0.78-3.9 2.37-5 3.53-1.1 1.16-1.55 2.09-1 2.07 0.55-0.03 0.24 0.52-0.7 1.21-0.93 0.7-1.83 1.93-2 2.75-0.16 0.81-0.89 2.16-1.62 3-0.73 0.83-1.07 2.08-0.75 2.77 0.36 0.79 0.13 0.97-0.63 0.5-0.88-0.55-1.02-0.02-0.5 2 0.44 1.72 0.33 2.56-0.3 2.25-0.63-0.32-0.99 2.91-0.98 8.75 0.01 6.34 0.32 8.78 0.98 7.75 0.73-1.14 1-0.65 1.1 2 0.08 1.92 0.08 4.06 0.02 4.75-0.07 0.69 0.33 1.25 0.88 1.25 0.56 0 0.68 0.76 0.27 1.75-0.58 1.39-0.42 1.54 0.74 0.75 1.09-0.74 1.28-0.67 0.73 0.25-0.41 0.69-0.06 2.6 0.76 4.25 0.83 1.65 2.02 3 2.67 3 0.64 0 0.88 0.34 0.52 0.75-0.35 0.41 0.33 2.1 1.51 3.75 1.18 1.65 5.11 6.02 8.72 9.71 3.62 3.7 6.81 6.51 7.08 6.26 0.28-0.26 0.99 0.32 1.6 1.28 0.6 0.96 3.06 3.33 5.46 5.25 2.4 1.92 3.97 2.83 3.49 2-0.48-0.83 0.32-0.26 1.79 1.25 1.46 1.51 3.34 2.52 4.16 2.25q1.49-0.49 0.75 0.73c-0.53 0.87-0.24 1.02 1 0.5 0.96-0.4 1.55-0.39 1.3 0.02-0.25 0.41 2.22 1.54 5.5 2.5 3.27 0.96 5.97 2.31 5.99 3 0.02 0.69-1.44 1.98-3.25 2.87-2.91 1.43-3.75 1.46-7.29 0.2-2.2-0.78-4.56-1.17-5.25-0.87-0.78 0.34-0.97 0.11-0.5-0.63 0.55-0.88 0.09-0.96-1.75-0.32-1.84 0.64-2.3 0.56-1.75-0.32 0.47-0.74-0.09-1.44-1.5-1.88-1.24-0.38-2.59-0.61-3-0.5-0.41 0.11-0.41-0.35 0-1.03 0.53-0.87 0.24-1.02-1-0.5-0.96 0.4-1.64 0.34-1.5-0.14 0.14-0.48-2.45-2.91-5.75-5.4-3.3-2.49-7.53-6.26-9.4-8.38-3.19-3.62-3.45-3.73-4.37-1.85-0.54 1.1-0.81 2.96-0.6 4.13 0.2 1.17 0.03 1.96-0.38 1.75-0.41-0.21-0.52 0.97-0.25 2.62 0.28 1.67 0.06 3-0.5 3-0.55 0-0.77 1.12-0.5 2.5 0.35 1.76 0.15 2.28-0.68 1.75-0.84-0.54-1.05 0.27-0.75 2.9 0.26 2.18 0.05 3.39-0.52 3-0.59-0.4-0.68 0.79-0.25 3.1 0.38 2.06 0.36 3.56-0.05 3.33-0.41-0.24-1.54 3.81-2.5 9-0.96 5.18-1.42 10.21-1.02 11.17 0.57 1.38 0.42 1.54-0.71 0.75-1.19-0.83-1.31-0.45-0.72 2.25 0.42 1.97 0.31 3.25-0.3 3.25-0.55 0-0.89 1.07-0.75 2.38 0.14 1.31-0.17 2.1-0.69 1.75-0.54-0.36-0.75 0.69-0.5 2.51 0.26 1.86 0.05 2.88-0.51 2.5-0.59-0.39-0.68 0.8-0.25 3.11 0.52 2.79 0.4 3.56-0.5 3-0.85-0.53-1.06 0.01-0.75 1.88 0.25 1.45 0.11 2.46-0.3 2.25-0.41-0.21-0.97 0.97-1.25 2.62-0.27 1.65-0.17 3.79 0.23 4.75 0.57 1.37 0.42 1.54-0.69 0.75-1.13-0.8-1.28-0.56-0.72 1.25 0.39 1.29 0.25 2.25-0.32 2.25-0.55 0-0.77 0.67-0.5 1.5 0.28 0.83 0.05 1.27-0.5 1-0.55-0.28-1 0.17-1 1 0 0.83-0.56 1.5-1.25 1.5-0.69 0.01-1.81-0.89-2.5-2-0.69-1.1-1.7-1.78-2.25-1.5-0.55 0.27-1-0.4-1-1.5q0-2-2-2c-1.1 0-2.34 0.5-2.75 1.11-0.41 0.61-0.07 1.51 0.75 1.99 0.83 0.48 1.16 0.88 0.75 0.88-0.41 0.01 0.21 1.93 1.38 4.27 1.18 2.34 2.57 4.47 3.09 4.75 0.52 0.27 0.91 0.84 0.87 1.25-0.05 0.41-0.09 1.2-0.09 1.75 0 0.55 0.56 0.66 1.24 0.25q1.23-0.74 0.5 0.5c-0.41 0.69-0.15 1.81 0.58 2.5 0.73 0.69 1.31 1.47 1.3 1.75-0.02 0.27 0.85 1.94 1.93 3.69 1.07 1.76 2.4 2.89 2.94 2.5 0.54-0.38 0.68-0.24 0.31 0.31-0.38 0.55 0.07 2.24 1.01 3.76 0.93 1.52 2.1 2.42 2.6 2 0.5-0.42 0.65-0.31 0.32 0.24-0.32 0.55 0.77 3.02 2.43 5.5 1.66 2.47 3.43 4.39 3.93 4.25 0.5-0.14 0.69 0.2 0.41 0.75-0.27 0.55 1.64 3.13 4.25 5.74 2.61 2.61 4.08 4.3 3.25 3.76-0.82-0.54-0.37 0.46 1 2.22 1.38 1.76 2.95 2.93 3.5 2.58 0.55-0.34 0.67-0.21 0.28 0.29-0.4 0.5-0.29 1.7 0.25 2.66 0.53 0.96 1.42 1.52 1.97 1.25 0.55-0.28 0.9-0.16 0.79 0.25-0.12 0.41 0.33 1.76 1 3 0.75 1.39 1.69 1.97 2.46 1.51q1.24-0.73 0.5 0.5c-0.47 0.77 0.67 2.65 3 4.95 2.06 2.05 4.09 3.62 4.5 3.5 0.41-0.11 0.56 0.13 0.32 0.54-0.23 0.41 2.33 3.9 5.69 7.75 3.35 3.85 6.47 6.89 6.92 6.75 0.45-0.14 0.71 0.1 0.57 0.52-0.14 0.43 2 3.34 4.75 6.47 2.75 3.13 5.45 5.41 6 5.07 0.55-0.35 0.67-0.22 0.26 0.28-0.41 0.5 1.39 3.16 4 5.9 2.61 2.75 5.08 4.88 5.49 4.75 0.41-0.13 0.64 0.15 0.5 0.62-0.14 0.47 3.52 5.09 8.12 10.25 4.61 5.16 8.77 9.28 9.25 9.14 0.49-0.14 0.69 0.09 0.46 0.5-0.22 0.41 0.94 2.33 2.59 4.25 1.65 1.92 2.63 2.83 2.17 2-0.58-1.06-0.46-1.28 0.42-0.75 0.68 0.41 1.06 1.09 0.84 1.5-0.22 0.41 1.17 2.55 3.1 4.75 1.92 2.2 3.16 3.33 2.74 2.5-0.45-0.88-0.39-1.16 0.15-0.67 0.5 0.46 0.91 1.22 0.91 1.68 0 0.46 2.13 3.46 4.72 6.66 2.6 3.21 5.68 6.95 6.83 8.33 1.16 1.37 1.77 1.83 1.37 1-0.44-0.88-0.37-1.16 0.17-0.67 0.5 0.46 0.91 1.26 0.91 1.77 0 0.51 1.35 2.08 3 3.49 1.65 1.4 2.33 2.23 1.5 1.83-0.83-0.4-0.35 0.58 1.06 2.18 1.41 1.59 4.23 5.15 6.27 7.9l3.7 5c21.68-0.39 28.87-0.95 29.97-1.5 1.1-0.55 2.56-0.73 3.25-0.39 0.69 0.33 2.15 0.27 3.25-0.15 1.1-0.41 3.24-0.68 4.75-0.6 1.51 0.08 2.75-0.2 2.76-0.61 0-0.41 1.69-0.56 3.75-0.32 2.17 0.24 3.47 0.03 3.11-0.5-0.36-0.53 0.51-0.74 2-0.48 1.53 0.26 2.36 0.05 1.99-0.5-0.38-0.55 1.52-1.05 4.5-1.19 2.83-0.13 5.24-0.36 5.35-0.5 0.12-0.14-0.22-1.95-0.75-4.01-0.53-2.06-1.41-3.53-1.96-3.25-0.55 0.27-0.76-0.06-0.46-0.75 0.3-0.69-0.15-2.6-0.99-4.25-0.85-1.65-1.54-3.56-1.54-4.25-0.01-0.73-0.53-0.94-1.25-0.5-0.74 0.45-0.96 0.35-0.53-0.25 0.38-0.55-0.07-2.89-1.01-5.21-0.95-2.31-2.06-4-2.47-3.75-0.41 0.25-0.43-0.55-0.04-1.79 0.58-1.83 0.44-2.06-0.73-1.25-1.13 0.79-1.28 0.63-0.71-0.75 0.41-0.99 0.29-1.75-0.27-1.75-0.56 0-0.68-0.76-0.27-1.75 0.44-1.06 0.34-1.5-0.25-1.12-0.54 0.34-1.02 0.12-1.07-0.5-0.05-0.62-0.17-1.92-0.25-2.88-0.09-0.96-0.61-1.53-1.16-1.25-0.55 0.27-0.77-0.17-0.5-1 0.28-0.83 0.05-1.5-0.5-1.5-0.56 0-0.68-0.76-0.27-1.75 0.52-1.24 0.37-1.53-0.5-1q-1.22 0.74-0.73-0.75c0.28-0.83 0.05-1.5-0.5-1.5-0.56 0-0.68-0.76-0.27-1.75 0.52-1.24 0.37-1.53-0.5-1q-1.22 0.74-0.73-0.75c0.28-0.83 0.05-1.5-0.5-1.5-0.56 0-0.68-0.76-0.27-1.75 0.58-1.39 0.42-1.55-0.75-0.76-1.09 0.73-1.28 0.66-0.73-0.25 0.41-0.68-0.04-3.25-1-5.7-0.96-2.46-1.97-4.3-2.25-4.09-0.27 0.2-0.59-0.6-0.71-1.79-0.12-1.19-0.68-2.27-1.25-2.41-0.57-0.14-0.81-0.7-0.54-1.25 0.28-0.55 0.05-1-0.5-1-0.56 0-0.68-0.76-0.27-1.75 0.52-1.24 0.37-1.53-0.5-1-0.68 0.41-1.23 0.3-1.23-0.25 0-0.55-0.34-1.01-0.75-1.01-0.41-0.01-1.64 1.45-2.73 3.25-1.43 2.35-1.57 3.03-0.5 2.42 0.81-0.46 0.4-0.01-0.91 1-1.34 1.03-2.11 2.39-1.75 3.09 0.35 0.69 0.3 1.23-0.11 1.21-0.41-0.02-1.42 1.44-2.24 3.25-0.82 1.81-1.38 3.63-1.25 4.04 0.13 0.41-0.21 0.52-0.76 0.25-0.55-0.28-1.85 1.64-2.89 4.25-1.04 2.61-2.17 6.21-2.5 8-0.34 1.79-1.06 3.25-1.61 3.25-0.55 0-1.27-1.01-1.61-2.25-0.33-1.24-0.67-5.7-0.75-9.91-0.08-4.63 0.23-7.39 0.81-7 0.55 0.39 0.76-0.44 0.5-1.97-0.27-1.55-0.05-2.37 0.51-2 0.58 0.38 0.68-0.26 0.25-1.62-0.51-1.63-0.38-2.04 0.5-1.5 0.88 0.54 1.02 0.13 0.5-1.5-0.52-1.64-0.38-2.05 0.52-1.5 0.87 0.53 1.02 0.24 0.5-1-0.41-0.99-0.29-1.75 0.27-1.75 0.55 0 0.74-0.79 0.43-1.75-0.32-0.96-0.2-1.41 0.25-1 0.45 0.42 1.65-0.71 2.67-2.5 1.03-1.79 1.93-4 2-4.91 0.08-0.91 0.38-1.49 0.65-1.29 0.28 0.2 1.06-0.74 1.75-2.09 1-1.97 1-2.34 0-1.87-0.69 0.32-0.32-0.24 0.81-1.25 1.14-1.01 2.83-3.08 3.75-4.59 1.06-1.72 1.22-2.53 0.44-2.16-0.69 0.32-0.12-0.39 1.25-1.59 1.38-1.2 1.83-1.82 1-1.4-0.83 0.43-0.37-0.41 1-1.86 1.38-1.45 2.5-3.03 2.5-3.51 0-0.48 0.76-1.63 1.68-2.55 0.92-0.92 2.61-1.68 3.75-1.68 1.14 0 2.07 0.45 2.07 1 0 0.55 0.07 1.79 0.15 2.75 0.08 0.96-0.37 2.99-1 4.5-0.63 1.51-1.15 3.42-1.15 4.25 0 0.83-0.45 1.5-1 1.5-0.55 0-0.98 1.01-0.96 2.25 0.02 1.24 0.81 2.85 1.75 3.57 1.01 0.79 1.1 1.02 0.21 0.58-1.24-0.61-1.22-0.41 0.11 1.18 0.88 1.06 4.44 5.52 7.91 9.92 3.46 4.4 6.68 7.89 7.14 7.75 0.46-0.14 0.65 0.09 0.42 0.5-0.22 0.41 0.94 2.33 2.59 4.25 1.65 1.92 2.66 2.83 2.25 2-0.43-0.88-0.37-1.16 0.17-0.67 0.5 0.46 0.91 1.2 0.91 1.64 0 0.45 1.91 3.11 4.25 5.92 2.34 2.81 4.7 4.88 5.25 4.61 0.55-0.28 1-0.05 1 0.5 0 0.55 0.45 0.77 1 0.5 0.55-0.28 1.45 0.4 2 1.5 0.55 1.1 1.67 2 2.5 2 0.83 0 1.61 0.42 1.75 0.93 0.14 0.5 0.92 1.07 1.75 1.25 0.83 0.17 2.06 1.11 2.75 2.07 0.69 0.96 2.15 2.2 3.25 2.75 1.51 0.75 1.86 0.69 1.43-0.25-0.32-0.69 0.14-0.35 1.01 0.75 0.88 1.1 1.6 1.55 1.61 1 0.01-0.55 0.68-0.1 1.5 1 0.82 1.1 1.47 1.55 1.45 1-0.02-0.55 0.68-0.1 1.56 1 0.87 1.1 1.29 1.33 0.93 0.5-0.37-0.83 0.31-0.38 1.51 1 1.2 1.37 1.84 1.83 1.44 1-0.4-0.83 0.23-0.49 1.41 0.75 1.28 1.33 2.65 1.94 3.39 1.5q1.23-0.74 0.5 0.5-0.73 1.25 2.51 2.49c1.79 0.68 3.59 1.13 4 1 0.41-0.13 0.75 0.21 0.75 0.76 0 0.55 1.13 1.67 2.5 2.5 1.7 1.02 2.9 1.18 3.75 0.51 0.69-0.55 1.59-0.77 2-0.5 0.41 0.27 2.55-0.41 4.75-1.51 2.2-1.1 4-2.45 4-3 0-0.55 0.45-0.78 1-0.5 0.55 0.27 1 0.05 1-0.5 0-0.55 0.34-0.91 0.75-0.8 0.41 0.11 1.76-0.12 3-0.5 1.24-0.39 2.03-1.15 1.75-1.7-0.27-0.55 0.06-1.05 0.75-1.12 0.69-0.06 1.59-0.06 2 0 0.41 0.07 0.98-0.55 1.25-1.38 0.28-0.83 1.29-1.5 2.25-1.51 0.96 0 2.99-0.79 4.51-1.75 1.52-0.96 2.42-2.15 2-2.65-0.42-0.5-0.31-0.64 0.24-0.31 0.55 0.34 2.24-0.15 3.76-1.09 1.52-0.93 2.42-2.1 2-2.6-0.42-0.5-0.31-0.63 0.24-0.28 0.55 0.35 3.48-1.19 6.5-3.41 3.03-2.23 5.35-4.58 5.17-5.23-0.19-0.64 0.04-0.84 0.5-0.45 0.45 0.4 1.62 0.29 2.58-0.25 1.04-0.58 1.45-1.47 1-2.21q-0.74-1.23 0.5-0.5c0.74 0.44 1.63 0.03 2.18-1.01 0.51-0.96 1.3-1.75 1.75-1.75 0.45 0 0.67-0.45 0.49-1-0.19-0.55 0.04-0.68 0.5-0.29 0.45 0.39 2.29-0.4 4.08-1.75 1.93-1.46 2.98-2.97 2.59-3.71-0.36-0.69-0.25-0.92 0.25-0.52 0.5 0.4 2.49-0.7 4.41-2.45 1.92-1.75 3.35-3.65 3.17-4.23-0.19-0.58 0.04-0.7 0.5-0.27 0.46 0.43 4.07-2.5 8.03-6.5 3.97-4 6.9-7.73 6.51-8.28-0.41-0.6-0.19-0.7 0.55-0.25 0.78 0.47 1.88-0.27 2.96-2 0.95-1.51 1.62-3.09 1.5-3.5-0.12-0.41 0.23-0.53 0.78-0.25 0.55 0.27 1.78-0.74 2.72-2.25 0.95-1.51 1.62-3.09 1.5-3.5-0.12-0.41 0.23-0.53 0.78-0.25 0.55 0.27 1.55-0.51 2.21-1.75 0.67-1.24 1.12-2.59 1-3-0.11-0.41 0.24-0.53 0.79-0.25 0.55 0.27 1.53-0.51 2.17-1.75 0.64-1.24 1.09-2.36 1-2.5-0.09-0.14 0.13-0.59 0.49-1 0.36-0.41 0.33-0.08-0.07 0.75-0.41 0.83-0.04 0.6 0.81-0.5 0.85-1.1 1.22-2.45 0.83-3-0.42-0.6-0.21-0.7 0.53-0.25 0.85 0.51 3.95-3.39 9.74-12.25 4.82-7.37 8.21-13.54 7.84-14.25-0.37-0.69-0.26-0.92 0.25-0.5 0.5 0.42 1.7-0.6 2.66-2.25 0.96-1.65 1.41-3.56 1-4.24-0.44-0.74-0.34-0.96 0.25-0.56 0.56 0.38 2.63-2.56 4.75-6.76 2.13-4.23 3.43-7.98 3.01-8.69q-0.73-1.24 0.5-0.5c0.73 0.44 1.44 0.14 1.74-0.75 0.28-0.83 0.17-2.06-0.24-2.75-0.55-0.92-0.36-0.99 0.73-0.25 1.16 0.79 1.32 0.64 0.74-0.75-0.44-1.05-0.33-1.55 0.27-1.25 0.55 0.27 1.07-0.29 1.16-1.25 0.08-0.96 0.2-2.26 0.25-2.88 0.05-0.62 0.43-0.96 0.84-0.75 0.41 0.21 1.06-0.86 1.44-2.37 0.39-1.51 0.72-3.2 0.75-3.75 0.03-0.55 0.65-1.67 1.38-2.5 0.73-0.83 1.07-2.06 0.75-2.75-0.31-0.69-0.12-1.25 0.43-1.25 0.55 0 1.9-2.92 3-6.5 1.1-3.58 1.67-7.06 1.26-7.75-0.44-0.74-0.33-0.97 0.25-0.56 0.58 0.4 1.72-1.79 2.74-5.25 0.96-3.27 1.41-6.5 1-7.18-0.45-0.74-0.34-0.96 0.25-0.56 0.6 0.41 1.72-2.22 2.78-6.51 0.98-3.95 1.88-8.99 2-11.19 0.12-2.2 0.59-4.23 1.05-4.5 0.46-0.28 0.91-3.27 1-6.65 0.09-3.38 0.46-5.63 0.82-5 0.36 0.63 0.93-0.65 1.27-2.85 0.34-2.2 0.91-17.28 1.26-33.5 0.4-17.86 0.29-29.24-0.26-28.84-0.54 0.38-0.82-1.91-0.69-5.5 0.17-4.32-0.03-5.56-0.67-4.16-0.59 1.31-0.69 0.11-0.28-3.5 0.38-3.39 0.26-5.25-0.33-4.85-0.57 0.39-0.78-0.82-0.52-3 0.24-2.12 0.03-3.38-0.5-3-0.54 0.38-0.9-1.33-0.86-4 0.04-2.56-0.41-6.37-1-8.46-0.59-2.1-1.29-3.61-1.57-3.35-0.27 0.25-0.3-0.96-0.06-2.69 0.25-1.83 0.04-2.88-0.5-2.51-0.55 0.38-0.76-0.67-0.5-2.5 0.25-1.82 0.04-2.87-0.5-2.51-0.54 0.36-0.75-0.49-0.49-2 0.36-2.13 0.17-2.44-1-1.64-1.06 0.73-1.25 0.66-0.7-0.25 0.41-0.68 0.53-2.59 0.25-4.24-0.27-1.65-0.95-2.78-1.5-2.5-0.62 0.31-0.73-0.36-0.29-1.75 0.58-1.83 0.44-2.06-0.74-1.25-1.07 0.74-1.25 0.67-0.71-0.25 0.41-0.69 0-3.61-0.9-6.5-0.9-2.89-3.64-10.2-6.08-16.25-2.45-6.05-7.05-16.17-10.24-22.5-3.18-6.33-6.63-12.96-7.66-14.75-1.04-1.79-2.26-2.92-2.71-2.5-0.46 0.41-0.71 0.3-0.56-0.25 0.16-0.55-0.03-2.01-0.41-3.25-0.43-1.38-1.18-1.99-1.95-1.59-0.69 0.36-0.92 0.25-0.51-0.25 0.4-0.5-0.27-2.58-1.5-4.62-1.23-2.04-2.69-3.39-3.23-3-0.59 0.42-0.69 0.2-0.25-0.54 0.45-0.75-1.14-3.83-4.01-7.75-2.61-3.58-5.13-6.17-5.58-5.75-0.46 0.41-0.7 0.3-0.54-0.25 0.16-0.55-0.25-2.01-0.92-3.25-0.66-1.24-1.66-2.03-2.21-1.75-0.55 0.27-0.9 0.16-0.79-0.25 0.12-0.41-0.33-1.76-1-3-0.66-1.24-1.66-2.03-2.21-1.75-0.55 0.27-0.9 0.16-0.78-0.25 0.12-0.41-0.55-1.99-1.5-3.5-1.08-1.73-2.18-2.47-2.96-2q-1.23 0.74-0.5-0.5c0.48-0.81-3.64-5.63-11.76-13.75-6.87-6.88-13.04-12.39-13.7-12.25-0.67 0.14-1.23-0.35-1.25-1.08-0.03-0.73-0.95-1.96-2.05-2.72-1.1-0.77-2.34-1.18-2.75-0.92-0.41 0.26-0.64 0.09-0.5-0.38 0.14-0.47-2.22-2.87-5.25-5.33-3.02-2.47-7.52-5.9-10-7.64-2.47-1.73-4.84-2.93-5.25-2.66-0.41 0.26-0.64-0.08-0.5-0.77 0.14-0.69-0.54-1.14-1.5-1-0.96 0.14-1.64-0.31-1.5-1 0.14-0.69-0.54-1.14-1.5-1-0.96 0.14-1.64-0.31-1.5-1 0.14-0.72-0.59-1.15-1.75-1.02-1.1 0.13-1.66-0.09-1.25-0.5 0.41-0.4-0.15-1.29-1.25-1.98-1.1-0.69-2.56-0.95-3.25-0.59-0.69 0.37-0.92 0.26-0.5-0.25 0.41-0.5-0.15-1.47-1.25-2.16-1.1-0.69-2.56-0.95-3.25-0.59-0.7 0.37-0.91 0.26-0.49-0.25 0.42-0.5-1.05-1.92-3.25-3.16-2.22-1.24-4.57-1.92-5.26-1.51-0.74 0.44-0.97 0.33-0.56-0.25 0.39-0.55-1.62-2.19-4.5-3.69-2.85-1.48-7.78-3.84-10.94-5.25-3.16-1.4-6.31-2.21-6.99-1.8q-1.23 0.74-0.5-0.5c0.51-0.87-0.71-1.7-4.01-2.72-2.61-0.81-5.2-1.15-5.74-0.75-0.59 0.43-0.69 0.21-0.25-0.53 0.5-0.85-0.38-1.57-2.76-2.25-1.92-0.55-4.06-0.67-4.75-0.26-0.92 0.54-0.99 0.36-0.25-0.71 0.81-1.18 0.58-1.32-1.25-0.74-1.63 0.51-2.04 0.38-1.5-0.5 0.54-0.88 0.13-1.02-1.5-0.5-1.39 0.44-2.06 0.33-1.75-0.29 0.28-0.55-0.62-1.23-2-1.5-1.37-0.28-3.06-0.16-3.74 0.25q-1.23 0.74-0.5-0.5c0.51-0.86-0.21-1.41-2.26-1.75-1.65-0.28-3.56-0.17-4.25 0.24-0.92 0.54-0.99 0.36-0.25-0.7 0.81-1.16 0.5-1.35-1.63-0.99-1.55 0.27-2.37 0.05-2-0.51 0.38-0.58-0.26-0.68-1.62-0.25-1.61 0.51-2.04 0.37-1.5-0.48 0.54-0.84-0.14-1.06-2.39-0.75-1.73 0.24-3 0.21-2.82-0.06 0.18-0.28-1.44-0.84-3.61-1.25-2.16-0.41-4.49-0.41-5.17 0-0.91 0.55-0.97 0.37-0.25-0.68 0.81-1.17 0.34-1.35-2.66-1-2.17 0.26-3.38 0.05-3-0.52 0.4-0.58-0.99-0.67-3.6-0.25-3.19 0.53-4.06 0.4-3.5-0.5 0.56-0.9-0.31-1.02-3.5-0.5-3.12 0.51-4.05 0.39-3.5-0.46 0.54-0.84-0.53-1.05-3.9-0.75-2.56 0.22-4.52 0.18-4.34-0.09 0.17-0.28-5.38-0.84-12.35-1.25-6.96-0.41-19.12-0.74-27.01-0.75-9.31 0-14.14 0.35-13.75 1 0.37 0.62-0.26 0.75-1.65 0.36zm64.49 147.76c-5.92-0.4-9.25-0.26-9.25 0.38 0 0.56-1.87 0.86-4.24 0.69-3.16-0.23-3.87-0.04-2.75 0.73 1.07 0.73-0.09 0.83-4 0.35-4.16-0.5-5.32-0.38-4.75 0.53 0.52 0.83 0.13 1.05-1.25 0.7-1.1-0.27-2-0.05-2 0.5 0 0.55-0.9 0.77-2 0.5-1.1-0.27-2.01-0.16-2.02 0.25-0.02 0.41 1.56 3.79 3.5 7.5 1.93 3.71 3.82 6.41 4.18 6 0.36-0.41 0.39-0.3 0.05 0.25-0.34 0.55-0.03 3.92 0.67 7.5 0.71 3.58 1.53 5.83 1.81 5 0.29-0.83 0.33 0.98 0.09 4-0.33 4.31-0.17 5.17 0.73 4 0.95-1.22 1.06-1.04 0.59 1-0.31 1.37-0.57 4.52-0.56 7 0.01 3.03-0.73 5.63-2.26 7.94-1.25 1.89-4.75 5.46-7.78 7.93-3.02 2.48-5.39 4.87-5.25 5.31 0.14 0.45-0.31 0.71-1 0.57-0.69-0.14-1.14 0.31-1 1 0.14 0.69-0.23 1.14-0.82 1-0.59-0.14-2.28 1.3-3.75 3.19-1.47 1.9-2 3.1-1.18 2.68 0.83-0.43 0.38 0.22-1 1.44-1.37 1.21-2.39 2.59-2.25 3.07 0.14 0.48-1.55 1.1-3.75 1.37-2.2 0.27-4 0.95-4 1.5 0 0.55 2.03 1 4.5 1 2.48 0 4.5-0.45 4.5-1 0-0.55 1.01-0.74 2.25-0.43 1.24 0.32 2.7 0.56 3.25 0.54 0.55-0.02 2.58-0.25 4.5-0.51 1.93-0.26 4.29-0.5 5.25-0.54 0.96-0.03 1.53-0.51 1.25-1.06-0.29-0.58 0.23-0.73 1.25-0.35 0.96 0.35 5.88 0.01 10.93-0.75 5.05-0.77 8.98-1.74 8.75-2.15-0.24-0.41 1.26-0.43 3.32-0.05 2.8 0.53 3.56 0.4 3-0.5-0.56-0.9 0.31-1.03 3.5-0.5 2.61 0.42 4 0.33 3.61-0.25-0.37-0.54 0.6-0.84 2.25-0.7 1.59 0.14 2.89-0.2 2.89-0.75 0-0.55 0.45-0.77 1-0.5 0.55 0.27 3.89 0.16 7.42-0.25 3.53-0.41 6.23-1.09 6-1.5-0.23-0.41 2.39-0.52 5.83-0.24 3.44 0.29 5.48 0.18 4.54-0.25-0.94-0.42 2.99-0.76 8.75-0.76 5.75 0 10.46 0.34 10.46 0.75 0 0.41 1.57 0.64 3.49 0.5 1.93-0.14 3.61 0.05 3.75 0.42 0.14 0.37 2.29 0.87 4.76 1.11 2.48 0.24 5.18 0.74 6 1.11 0.83 0.37 2.4 0.85 3.5 1.07 1.1 0.21 2.11 0.42 2.25 0.46 0.14 0.05 0.62 0.19 1.07 0.33 0.45 0.14 1.58 1.04 2.5 2 0.92 0.96 2.24 1.8 2.93 1.87 0.69 0.06 1.59 0.06 2 0 0.41-0.07 0.75 0.33 0.75 0.88 0 0.55 1.46 1.86 3.25 2.91 2.49 1.47 3.55 1.64 4.52 0.75 0.73-0.67 1.26-0.74 1.26-0.16 0 0.55 0.33 0.43 0.74-0.26 0.4-0.7 1.86-1.31 3.23-1.36 1.38-0.05 3.74-0.27 5.25-0.49 1.91-0.27 2.6-0.85 2.25-1.89-0.27-0.83-0.05-1.73 0.5-2 0.55-0.27 1-1.85 1-3.5 0-1.65-0.34-3.01-0.75-3.02-0.41-0.01-0.55-1.25-0.3-2.75 0.26-1.59 0.05-2.47-0.5-2.1-0.55 0.37-0.76-0.47-0.5-2 0.31-1.87 0.1-2.41-0.75-1.88-0.83 0.52-1.05 0.13-0.7-1.25 0.28-1.1 0.05-2-0.5-2-0.58 0-0.7-0.94-0.29-2.25 0.43-1.37 0.34-1.99-0.25-1.6-0.54 0.38-1-0.71-1.06-2.5-0.05-1.73-0.62-3.26-1.25-3.4-0.63-0.14-0.92-0.7-0.65-1.25 0.28-0.55-0.74-5.25-2.25-10.43-1.51-5.19-3.09-9.24-3.5-9-0.41 0.23-0.43-0.58-0.04-1.82 0.52-1.63 0.38-2.04-0.5-1.5-0.76 0.47-1.01 0.29-0.68-0.5 0.29-0.69-0.65-4.4-2.09-8.25-1.43-3.85-3.13-7.58-3.78-8.3-0.64-0.71-4.08-2.22-7.66-3.34-3.57-1.12-7.06-1.77-7.75-1.45-0.79 0.37-0.97 0.15-0.5-0.6 0.54-0.84-0.14-1.06-2.39-0.75-1.83 0.26-2.88 0.05-2.5-0.5 0.37-0.54-0.71-0.75-2.6-0.5-1.78 0.24-3.24 0.1-3.25-0.31-0.01-0.41-1.31-0.64-2.9-0.5-1.66 0.14-2.62-0.16-2.25-0.7 0.4-0.59-1.26-0.69-4.36-0.26-3.61 0.5-4.58 0.4-3.5-0.35 1.12-0.78 0.29-0.97-3.25-0.74-2.7 0.17-4.75-0.13-4.74-0.7 0-0.64-3.19-0.78-8.75-0.41-4.82 0.33-7.86 0.25-6.76-0.18 1.13-0.43-2.78-0.77-9-0.77-6.5 0-10.18 0.33-9 0.8 1.1 0.44-2.17 0.52-7.26 0.18zm-86.49 415.48c-1.24 0.34-5.29 3.6-9.01 7.25-3.72 3.66-6.75 6.99-6.75 7.4 0.01 0.41 0.91 0.52 2.01 0.25 1.1-0.28 2-0.95 2-1.5 0-0.56 0.76-0.68 1.75-0.27 1.24 0.52 1.53 0.37 1-0.5-0.44-0.72-0.13-1.44 0.75-1.73 0.83-0.28 1.28-0.05 1 0.5-0.27 0.55 0.18 0.77 1 0.5 0.83-0.28 1.28-0.95 1-1.5-0.27-0.55 0.29-1.05 1.25-1.12 0.96-0.06 2.31-0.06 3 0 0.69 0.07 1.03-0.33 0.75-0.88-0.27-0.55 0.96-1.46 2.75-2.02 1.79-0.56 4.38-1 5.75-0.98 1.38 0.02 4.19 1.26 6.26 2.77 2.07 1.5 4.1 2.41 4.5 2.02 0.41-0.39-0.5-2.08-2.01-3.75-1.51-1.67-2.74-2.7-2.73-2.29 0.01 0.41-0.63-0.15-1.42-1.25-0.79-1.1-2.04-2.02-2.77-2.05-0.73-0.02-1.18-0.7-1-1.5 0.19-0.8-0.04-1.11-0.5-0.69-0.45 0.41-1.83 0.06-3.06-0.79-2.01-1.38-2.29-1.38-2.75 0-0.29 0.84-1.53 1.8-2.77 2.13z"/>
		<path id="Path 9" fill-rule="evenodd" class="s0" d="m721.4 779.81c0.6 0.43 2.78 1.89 4.84 3.24 2.06 1.35 3.75 3.01 3.75 3.7 0.01 0.69 0.46 1.03 1.01 0.75 0.55-0.27 0.95-0.16 0.88 0.25-0.06 0.41-0.06 1.99 0 3.5 0.07 1.51 0.46 2.57 0.87 2.35 0.41-0.23 0.75 1.12 0.75 3 0 1.87-0.34 3.4-0.75 3.4-0.41 0-0.52 1.01-0.24 2.25 0.28 1.24 0.17 1.93-0.25 1.53-0.42-0.39-1.66 0.67-2.76 2.36-1.1 1.68-3.35 3.8-5 4.71-1.65 0.91-3.23 1.88-3.5 2.15-0.27 0.28-2.3 0.49-4.5 0.47-2.2-0.02-4.45-0.32-5-0.68-0.55-0.36-1.73-0.57-2.63-0.47-0.89 0.1-5.08 3.56-9.3 7.68-4.22 4.13-8.33 7.84-9.12 8.25-0.8 0.41-1.22 1.2-0.95 1.75 0.27 0.55-0.04 0.89-0.7 0.75-0.67-0.14-1.23 0.38-1.25 1.15-0.03 0.78-0.72 1.56-1.55 1.75-0.83 0.18-4.2 0.8-7.5 1.36-3.3 0.57-6.23 0.68-6.5 0.26-0.27-0.43-2.41-0.89-4.75-1.02-2.57-0.15-4.05 0.14-3.75 0.75 0.27 0.55-0.06 0.75-0.75 0.45-0.69-0.31-4.51 2.39-8.5 6-3.99 3.6-7.04 6.89-6.78 7.3 0.26 0.41-0.52 1.74-1.75 2.94-1.22 1.2-2.56 2.22-2.97 2.25-0.41 0.03-2.66 1.76-5 3.83-2.34 2.08-5.19 3.77-6.35 3.75-1.15-0.01-2.72-0.53-3.5-1.15-0.77-0.62-1.63-2.3-1.9-3.73-0.27-1.43-0.05-2.6 0.5-2.59 0.55 0 0.68-0.34 0.29-0.77-0.39-0.43 0.08-1.45 1.05-2.28 0.96-0.82 1.06-1.05 0.21-0.5-1.32 0.85-1.37 0.75-0.3-0.75 0.69-0.96 1.59-1.57 2-1.36 0.41 0.22 3.46-2.14 6.78-5.25 3.32-3.1 4.89-4.74 0.97-1.64l2.5-2.72c1.38-1.5 2.79-2.63 3.14-2.5 0.35 0.12 3.05-2.02 6-4.75 2.95-2.73 5.36-5.42 5.36-5.98 0-0.56 2.02-1.12 4.5-1.24 2.48-0.13 7.26-0.36 10.64-0.52 3.38-0.16 5.63 0.04 5 0.44q-1.16 0.74 0.36 0.78c0.83 0.03 3.08-1.02 5-2.33 1.92-1.31 3.39-2.89 3.25-3.53-0.14-0.63 0.31-1.04 1-0.9 0.69 0.14 1.14-0.31 1-1-0.14-0.69 0.09-1.05 0.5-0.79 0.41 0.25 3.67-2.47 7.25-6.03 6.18-6.16 6.48-6.69 6.19-10.7-0.16-2.33-0.58-5.13-0.93-6.23-0.5-1.58-0.33-1.79 0.77-1 1.12 0.8 1.25 0.56 0.68-1.25-0.52-1.64-0.38-2.05 0.52-1.5 0.87 0.53 1.02 0.24 0.5-1-0.44-1.05-0.33-1.55 0.27-1.25 0.55 0.28 0.98 0.16 0.96-0.25-0.03-0.41 1.51-1.87 3.42-3.25 1.91-1.37 3.32-2.72 3.14-3-0.18-0.27 2.21-0.65 5.32-0.83 3.12-0.17 5.84-0.51 6.06-0.74 0.22-0.23 0.89-0.06 1.5 0.38zm-7.12 11.95c-0.43-0.41-1.33-0.24-2 0.37-0.66 0.61-1.25 2.3-1.29 3.74-0.04 1.45 0.5 3.19 1.22 3.87 0.71 0.69 1.64 0.91 2.07 0.5 0.43-0.41 0.76-0.18 0.75 0.51-0.02 0.69 0.76 1.26 1.72 1.28 0.96 0.02 2.46-0.77 3.33-1.75 0.86-0.98 1.62-2.9 1.69-4.28 0.06-1.37-0.31-3.06-0.83-3.75-0.52-0.69-1.39-1.02-1.94-0.75-0.55 0.28-1 0.05-1-0.5 0-0.55-0.67-1-1.5-1-0.83 0-1.49 0.56-1.47 1.25 0.01 0.69-0.32 0.92-0.75 0.51zm-204.78-215.26l0.21 9.5c0.14 6.24-0.09 8.81-0.68 7.5-0.58-1.3-0.85 2-0.79 9.5 0.09 9.82 0.21 10.62 0.81 5.5 0.53-4.47 0.62-3.52 0.33 3.75-0.21 5.36-0.04 9.58 0.37 9.37 0.41-0.21 0.55 0.8 0.3 2.25-0.26 1.52-0.04 2.36 0.5 2 0.55-0.37 0.76 0.47 0.5 2-0.31 1.87-0.1 2.41 0.75 1.88q1.18-0.73 0.7 0.75c-0.27 0.83-0.05 1.5 0.5 1.5 0.55 0 0.77 0.45 0.5 1-0.27 0.55 0.29 2.33 1.25 3.94 0.96 1.62 2.09 2.75 2.5 2.5 0.41-0.24 0.5 0.12 0.18 0.81-0.31 0.69 1.83 3.9 4.75 7.13 2.93 3.24 6.66 6.84 8.3 8 1.93 1.38 2.68 1.6 2.14 0.62-0.46-0.82 0.37-0.15 1.84 1.5 1.48 1.65 2.35 2.33 1.93 1.5-0.41-0.82 0.68-0.04 2.43 1.75 1.95 1.99 3.66 2.96 4.43 2.51q1.24-0.73 0.5 0.5c-0.41 0.68-0.3 1.24 0.25 1.24 0.55 0 1.41 0.11 1.92 0.25 0.5 0.14 1.29 0.66 1.75 1.16 0.49 0.54 0.21 0.61-0.67 0.18-0.83-0.41-0.6-0.04 0.5 0.81 1.1 0.85 2.34 1.33 2.75 1.07 0.41-0.26 1.08 0.09 1.49 0.78 0.53 0.9 0.33 1-0.75 0.34-0.82-0.5-1.26-0.65-0.99-0.33 0.27 0.32 2.19 1.74 4.25 3.16 2.06 1.42 3.44 2.02 3.05 1.33-0.38-0.69 0.74 0.21 2.5 2 1.76 1.79 3.65 3.03 4.2 2.75 0.55-0.27 1.33 0.06 1.74 0.75q0.73 1.24-0.5 0.5c-0.68-0.41-1.25-0.64-1.27-0.5-0.01 0.14 1.9 1.7 4.25 3.47 2.35 1.77 4.62 3.01 5.03 2.75 0.41-0.26 0.54-0.13 0.29 0.28-0.25 0.41 0.54 1.5 1.75 2.41 1.45 1.08 2.72 1.35 3.71 0.77 0.83-0.48 1.91-0.55 2.41-0.15 0.5 0.4 0.64 0.05 0.31-0.78-0.33-0.82-0.08-2.06 0.54-2.75 0.63-0.69 1.73-1.25 2.44-1.25 0.71 0 1.06 0.56 0.76 1.25-0.3 0.69 0.27 2.24 1.25 3.46 0.98 1.21 2.24 2.23 2.79 2.25 0.55 0.03 1.56-0.85 2.25-1.96 0.69-1.1 1.14-2.24 1-2.53-0.14-0.3 0.88-1.1 2.25-1.78 1.38-0.69 2.5-1.76 2.5-2.39 0-0.62 0.38-1.51 0.83-1.97 0.46-0.45 1.14-0.83 1.5-0.84 0.37 0 1.68-0.68 2.92-1.5 1.23-0.82 1.91-1.86 1.5-2.32-0.41-0.46-0.3-0.75 0.25-0.63 0.55 0.11 1.56 0.14 2.25 0.08 0.69-0.07 1.02-0.57 0.75-1.12-0.27-0.55 0.17-0.77 1-0.5 0.83 0.28 1.83-0.06 2.24-0.75 0.55-0.92 0.35-0.99-0.74-0.25-1.09 0.74-1.29 0.67-0.74-0.25 0.44-0.75 1.45-0.96 2.49-0.52 1.39 0.58 1.54 0.42 0.75-0.74q-1-1.47 0-0.76c0.55 0.4 3.92-0.5 7.5-1.98 3.58-1.49 6.73-2.94 7-3.23 0.27-0.29 0.95-0.53 1.5-0.54 0.55-0.01 3.48-0.42 6.5-0.91 3.02-0.49 5.84-1.04 6.25-1.23 0.41-0.19 0.86-0.37 1-0.4 0.14-0.03 2.5-0.29 5.25-0.57 2.75-0.28 7.25-0.56 10-0.63 2.75-0.06 6.58 0.16 8.5 0.5 1.92 0.35 3.61 0.66 3.75 0.69 0.14 0.04 0.68 0.18 1.21 0.32 0.52 0.14 1.68 1.15 2.57 2.25 0.89 1.1 1.32 1.33 0.96 0.5-0.37-0.82 0.29-0.37 1.45 1 1.17 1.38 2.55 3.29 3.09 4.25 0.72 1.31 0.66 1.56-0.27 1-0.9-0.55-0.98-0.34-0.29 0.75 0.53 0.83 1.2 3.59 1.49 6.14 0.33 2.87 0.17 4.4-0.42 4-0.59-0.39-0.68 0.33-0.24 1.86 0.4 1.38 0.49 2.16 0.21 1.75-0.28-0.41-1.34 0.04-2.35 1-1.01 0.96-1.58 2.2-1.25 2.74 0.34 0.57 0.06 0.68-0.66 0.25-0.72-0.43-2.09 0.1-3.25 1.26-1.1 1.1-2.56 1.79-3.25 1.52-0.69-0.26-1.81-1.61-2.5-3-0.69-1.38-2.04-2.57-3-2.64-0.96-0.06-2.31-0.06-3 0-0.69 0.07-1.02-0.33-0.75-0.88 0.27-0.55-0.29-0.9-1.25-0.77-0.96 0.12-2.42-0.21-3.25-0.74-1.1-0.71-1.3-0.64-0.75 0.27 0.59 0.97-1.2 1.08-8.26 0.49-5.84-0.49-9-0.4-9 0.25 0.01 0.55-0.55 1.09-1.24 1.19-0.69 0.11-2.15 0.41-3.25 0.67-1.1 0.27-2.23 0.57-2.5 0.68-0.27 0.11-0.84 0.14-1.25 0.08-0.41-0.07-0.74 0.22-0.73 0.63 0.02 0.41-1.33 1.09-3 1.5-1.66 0.41-5.61 3.26-8.77 6.32-3.16 3.06-5.79 5.87-5.84 6.25-0.04 0.37-0.38 1.47-0.75 2.43-0.36 0.96-1 1.54-1.41 1.29-0.41-0.25-1.32 0.76-2.03 2.25-0.7 1.49-1.04 2.94-0.76 3.21 0.28 0.28-0.16 0.95-0.99 1.5-1.02 0.68-1.65 3.26-1.95 8-0.25 3.85-0.24 6.44 0.02 5.75 0.25-0.69 0.91-1.25 1.46-1.25 0.55 0 2.35 1.35 4 3 1.65 1.65 2.99 3.34 2.97 3.75-0.02 0.41 0.96 1.65 2.17 2.75 1.35 1.22 1.91 1.42 1.45 0.5-0.41-0.82 0.49-0.15 2 1.5 1.52 1.65 3.47 3.07 4.34 3.16 0.86 0.08 2.42-0.37 3.45-1 1.45-0.9 1.97-0.87 2.25 0.09 0.2 0.69 1.04 1.25 1.87 1.25 0.83 0 1.5 0.45 1.5 1 0 0.55 0.45 0.78 1 0.5 0.55-0.27 1.11 0.01 1.25 0.63 0.14 0.63 1.74 1.19 3.56 1.25 2.13 0.08 3.92-0.57 5-1.8 1.3-1.48 1.35-1.75 0.19-1.17-0.83 0.42-0.44-0.06 0.84-1.07 1.48-1.16 2.41-3 2.5-4.99 0.09-1.74 0.5-2.97 0.91-2.75 0.41 0.22 0.75-2.07 0.75-5.1 0-3.99-0.32-5.29-1.18-4.75-0.85 0.54-0.99 0.11-0.5-1.5 0.39-1.29 0.25-2.25-0.32-2.25-0.55 0-0.77-0.45-0.5-1 0.27-0.55-0.79-2.01-2.37-3.25-2.56-2-2.7-2.38-1.25-3.4 1.06-0.75 3.79-0.92 7.88-0.5 3.94 0.41 6.26 0.28 6.25-0.35-0.01-0.59 2.65-0.9 6.49-0.75 5.55 0.21 6.57 0.54 7 2.25 0.35 1.4 0.13 1.77-0.73 1.25-0.87-0.53-1.02-0.24-0.5 1 0.43 1.04 0.19 2.26-0.6 3-0.73 0.69-1.09 1.93-0.8 2.75 0.4 1.13 0.18 1.25-0.88 0.5-1.14-0.81-1.27-0.56-0.7 1.25 0.51 1.63 0.38 2.04-0.5 1.5-0.88-0.54-1.02-0.13-0.5 1.5 0.44 1.39 0.33 2.06-0.29 1.75-0.59-0.29-0.94 1.04-0.86 3.25 0.08 2.06 0.75 4.99 1.5 6.5 0.75 1.51 1.81 2.75 2.36 2.75 0.55 0 0.99 0.79 0.97 1.75-0.01 0.96 0.32 2.13 0.75 2.58 0.43 0.46 0.89 1.25 1.03 1.75 0.14 0.51 0.25 1.6 0.25 2.42 0 0.83 0.45 1.28 1 1 0.63-0.32 0.82 1.34 0.5 4.5-0.32 3.16-0.13 4.82 0.5 4.5 0.55-0.28 0.97 0.73 0.93 2.25-0.06 2.44-0.17 2.52-0.93 0.75-0.63-1.46-0.92-0.37-1.08 4-0.12 3.3-0.28 6.45-0.35 7-0.07 0.55-0.45 1.56-0.85 2.25-0.39 0.69-0.49 1.7-0.22 2.25 0.27 0.55-0.06 0.99-0.75 0.97-0.69-0.01-0.91 0.32-0.5 0.75 0.42 0.43-0.03 1.58-1 2.56-0.96 0.98-1.41 1.77-1 1.75 0.41-0.02-0.04 0.85-1 1.93-1.38 1.56-2.02 1.71-3.04 0.75-0.71-0.66-1.02-2.11-0.68-3.21 0.48-1.61 0.4-1.71-0.45-0.5-0.58 0.83-1.04 1.05-1.04 0.5 0.01-0.55-1.26 0.8-2.82 3-1.57 2.2-4.62 5.43-6.78 7.18-2.17 1.76-6.75 4.34-10.19 5.75-3.44 1.42-7.15 2.57-8.25 2.57-1.1 0-1.77 0.45-1.5 1 0.31 0.61-0.56 0.76-2.25 0.39-1.61-0.36-3.66-0.05-4.95 0.75-1.78 1.09-2.51 1.11-3.75 0.11-0.85-0.69-2.22-1.02-3.05-0.75-0.89 0.3-1.5-0.11-1.5-1 0-0.87-1.59-1.98-3.75-2.63-2.06-0.62-5.84-0.96-8.39-0.75-2.72 0.22-4.38 0-4-0.55 0.37-0.53-0.89-0.74-3.01-0.5-2.17 0.26-3.38 0.05-3-0.52 0.38-0.55-0.49-0.76-2.08-0.5-1.5 0.25-2.85 0.23-3-0.05-0.15-0.27-3.64-1.62-7.77-3-4.12-1.37-7.95-2.5-8.5-2.5-0.55 0-1.23-0.27-1.5-0.61-0.27-0.34-1.96-1.35-3.75-2.25-1.79-0.9-3.81-1.3-4.49-0.89-0.91 0.55-0.98 0.36-0.25-0.73 0.79-1.17 0.63-1.33-0.76-0.75-1.05 0.44-1.55 0.33-1.25-0.27 0.27-0.55 0.05-1-0.5-1-0.55 0-1.17 0.11-1.39 0.25-0.21 0.14-1.22-0.74-2.25-1.96-1.02-1.21-2.48-2.34-3.24-2.5-0.76-0.16-2.44-1.3-3.75-2.54-1.3-1.24-2.82-2.02-3.37-1.75-0.55 0.28-1.33-0.06-1.74-0.75-0.53-0.89-0.31-1 0.75-0.4 0.82 0.47-0.07-0.43-1.99-2-1.91-1.57-3.93-2.85-4.5-2.85-0.56 0-1.02-0.67-1.02-1.5 0-0.82-0.67-1.5-1.5-1.5-0.83 0-1.5-0.48-1.5-1.08 0-0.59-1.8-2.96-4-5.26-2.2-2.3-4.56-4.18-5.25-4.17-0.69 0-1.02 0.69-0.75 1.51 0.27 0.83 0.22 2.06-0.12 2.75-0.4 0.78-0.86 0.87-1.25 0.24-0.35-0.55-2.43-2.35-4.63-3.99-2.2-1.65-4.45-2.84-5-2.66-0.55 0.18-0.66 0.06-0.25-0.26 0.41-0.32-2.74-4.05-7-8.29-4.26-4.24-8.09-7.61-8.5-7.5-0.41 0.12-0.64-0.17-0.5-0.62 0.14-0.46-1.44-2.71-3.5-5-2.06-2.3-4.01-3.83-4.33-3.42-0.32 0.41-0.44 0.3-0.26-0.25 0.18-0.55-0.35-2.01-1.17-3.25-0.82-1.23-1.72-2.02-1.99-1.74-0.27 0.28-0.84-0.17-1.25-1-0.44-0.9-0.34-1.31 0.25-1.01 0.55 0.28 0.44-0.37-0.25-1.44-0.69-1.06-1.59-1.73-2-1.5-0.41 0.24-0.42-0.35-0.02-1.31 0.58-1.39 0.42-1.54-0.74-0.75-1.09 0.74-1.28 0.67-0.73-0.25 0.41-0.69 0.18-2.39-0.51-3.78-0.69-1.39-1.48-2.51-1.75-2.5-0.27 0.02-0.58-0.76-0.67-1.72-0.1-0.96-0.55-5.29-1-9.61-0.46-4.32-1.17-8.03-1.58-8.25-0.41-0.21-0.75-1.51-0.75-2.89 0-1.37 0.45-2.27 1-2 0.63 0.32 0.82-1.51 0.5-5-0.31-3.41-0.1-5.6 0.55-5.75 0.57-0.14 1.14-3.24 1.25-6.89 0.11-3.74 0.6-6.36 1.11-6 0.52 0.37 0.73-1.59 0.5-4.61-0.23-2.89-0.02-5.36 0.45-5.5 0.48-0.14 0.93-4.59 1-9.9 0.08-5.31 0.48-9.47 0.89-9.25 0.41 0.22 0.69-1.74 0.62-4.35-0.06-2.61 0.19-5.42 0.56-6.25 0.37-0.83 0.54-10.57 0.38-21.66-0.17-11.08 0.03-19.97 0.44-19.75 0.41 0.23 0.75 0.07 0.75-0.34 0-0.41 1.46-0.83 3.25-0.92 1.79-0.1 5.5-0.57 8.25-1.04 2.75-0.48 7.48-0.85 16-0.79z"/>
	</g>
</svg>